%FSLAX44Y44*%
%MOMM*%
G71*
G01*
G75*
G04 Layer_Physical_Order=3*
G04 Layer_Color=16440176*
%ADD10C,0.2800*%
%ADD11C,1.0000*%
%ADD12C,0.5000*%
%ADD13C,0.3000*%
%ADD14R,0.3000X0.7500*%
%ADD15R,0.7500X0.3000*%
%ADD16R,0.9000X0.8000*%
%ADD17R,0.8000X0.9000*%
%ADD18R,1.4700X1.1600*%
%ADD19R,1.5500X1.1600*%
G04:AMPARAMS|DCode=20|XSize=1.4001mm|YSize=1.1999mm|CornerRadius=0.12mm|HoleSize=0mm|Usage=FLASHONLY|Rotation=0.000|XOffset=0mm|YOffset=0mm|HoleType=Round|Shape=RoundedRectangle|*
%AMROUNDEDRECTD20*
21,1,1.4001,0.9599,0,0,0.0*
21,1,1.1601,1.1999,0,0,0.0*
1,1,0.2400,0.5800,-0.4800*
1,1,0.2400,-0.5800,-0.4800*
1,1,0.2400,-0.5800,0.4800*
1,1,0.2400,0.5800,0.4800*
%
%ADD20ROUNDEDRECTD20*%
G04:AMPARAMS|DCode=21|XSize=0.7mm|YSize=1.1999mm|CornerRadius=0.07mm|HoleSize=0mm|Usage=FLASHONLY|Rotation=0.000|XOffset=0mm|YOffset=0mm|HoleType=Round|Shape=RoundedRectangle|*
%AMROUNDEDRECTD21*
21,1,0.7000,1.0599,0,0,0.0*
21,1,0.5600,1.1999,0,0,0.0*
1,1,0.1400,0.2800,-0.5300*
1,1,0.1400,-0.2800,-0.5300*
1,1,0.1400,-0.2800,0.5300*
1,1,0.1400,0.2800,0.5300*
%
%ADD21ROUNDEDRECTD21*%
%ADD22R,2.5000X2.5000*%
%ADD23R,1.6000X1.6000*%
%ADD24C,1.6000*%
%ADD25C,0.6000*%
%ADD26C,0.5000*%
%ADD27C,0.6000*%
%ADD28C,2.0160*%
%ADD29C,1.3160*%
G36*
X33333Y75974D02*
Y46269D01*
X28448Y41384D01*
X25695Y41746D01*
X22677Y42997D01*
X20287Y44830D01*
X20132Y45032D01*
X18043Y46635D01*
X15611Y47643D01*
X13000Y47986D01*
X10389Y47643D01*
X7957Y46635D01*
X5868Y45032D01*
X4953Y43839D01*
X3059Y44482D01*
Y56718D01*
X4953Y57361D01*
X5868Y56168D01*
X7957Y54565D01*
X10389Y53557D01*
X13000Y53214D01*
X15611Y53557D01*
X18043Y54565D01*
X20132Y56168D01*
X21735Y58257D01*
X22743Y60690D01*
X23086Y63300D01*
X23055Y63541D01*
X23438Y66450D01*
X24653Y69385D01*
X26374Y71627D01*
X26445Y71698D01*
X26637Y71856D01*
Y71856D01*
Y71890D01*
X31486Y76739D01*
X33333Y75974D01*
D02*
G37*
G36*
X129500Y180300D02*
X149341D01*
Y146212D01*
X147447Y145569D01*
X146632Y146632D01*
X144543Y148235D01*
X142111Y149243D01*
X139500Y149586D01*
X136889Y149243D01*
X134457Y148235D01*
X132368Y146632D01*
X130765Y144543D01*
X129757Y142111D01*
X129414Y139500D01*
X129757Y136889D01*
X130765Y134457D01*
X132368Y132368D01*
X134457Y130765D01*
X136889Y129757D01*
X139500Y129414D01*
X142111Y129757D01*
X144543Y130765D01*
X146632Y132368D01*
X147447Y133431D01*
X149341Y132788D01*
Y120812D01*
X147447Y120169D01*
X146632Y121232D01*
X144543Y122835D01*
X142111Y123843D01*
X139500Y124186D01*
X136889Y123843D01*
X134457Y122835D01*
X132368Y121232D01*
X130765Y119143D01*
X129757Y116711D01*
X129414Y114100D01*
X129757Y111489D01*
X129883Y111187D01*
X128337Y109918D01*
X127451Y110510D01*
X125500Y110898D01*
X123549Y110510D01*
X122125Y109558D01*
X120551Y110610D01*
X118600Y110998D01*
X116649Y110610D01*
X115274Y109691D01*
X115205Y109705D01*
X115205Y109705D01*
Y109705D01*
X113551Y110810D01*
X111600Y111198D01*
X109649Y110810D01*
X108200Y109842D01*
X106751Y110810D01*
X104800Y111198D01*
X102849Y110810D01*
X101195Y109705D01*
X100090Y108051D01*
X99702Y106100D01*
X100090Y104149D01*
X101195Y102495D01*
X102849Y101390D01*
X104800Y101002D01*
X106751Y101390D01*
X108200Y102358D01*
X109649Y101390D01*
X111600Y101002D01*
X113551Y101390D01*
X114926Y102309D01*
X114995Y102295D01*
X114995Y102295D01*
Y102295D01*
X116649Y101190D01*
X118600Y100802D01*
X120551Y101190D01*
X121975Y102142D01*
X123549Y101090D01*
X125500Y100702D01*
X127451Y101090D01*
X129105Y102195D01*
X130210Y103849D01*
X130598Y105800D01*
X130524Y106171D01*
X132346Y106997D01*
X132368Y106968D01*
X134457Y105365D01*
X136889Y104357D01*
X139500Y104014D01*
X142111Y104357D01*
X144543Y105365D01*
X146632Y106968D01*
X147447Y108031D01*
X149341Y107388D01*
Y95412D01*
X147447Y94769D01*
X146632Y95832D01*
X144543Y97435D01*
X142111Y98443D01*
X139500Y98786D01*
X136889Y98443D01*
X134457Y97435D01*
X132368Y95832D01*
X130765Y93743D01*
X129757Y91311D01*
X129414Y88700D01*
X129757Y86089D01*
X130765Y83657D01*
X132368Y81568D01*
X134457Y79965D01*
X136889Y78957D01*
X139500Y78614D01*
X142111Y78957D01*
X144543Y79965D01*
X146632Y81568D01*
X147447Y82631D01*
X149341Y81988D01*
Y70012D01*
X147447Y69370D01*
X146632Y70432D01*
X144543Y72035D01*
X142111Y73043D01*
X139500Y73386D01*
X136889Y73043D01*
X134457Y72035D01*
X132368Y70432D01*
X130765Y68343D01*
X129757Y65911D01*
X129414Y63300D01*
X129757Y60690D01*
X130765Y58257D01*
X132368Y56168D01*
X134457Y54565D01*
X136889Y53557D01*
X139500Y53214D01*
X142111Y53557D01*
X144543Y54565D01*
X146632Y56168D01*
X147447Y57231D01*
X149341Y56588D01*
Y44612D01*
X147447Y43969D01*
X146632Y45032D01*
X144543Y46635D01*
X142111Y47643D01*
X139500Y47986D01*
X136889Y47643D01*
X134457Y46635D01*
X132368Y45032D01*
X130765Y42943D01*
X129757Y40511D01*
X129414Y37900D01*
X129757Y35289D01*
X130765Y32857D01*
X132368Y30768D01*
X134457Y29165D01*
X136889Y28157D01*
X139500Y27814D01*
X142111Y28157D01*
X144543Y29165D01*
X146632Y30768D01*
X147447Y31830D01*
X149341Y31188D01*
Y3059D01*
X23000D01*
Y8025D01*
X24816Y8777D01*
X26556Y9007D01*
X26799Y8975D01*
Y9033D01*
X37600D01*
X38927Y9297D01*
X40051Y10049D01*
X40051Y10049D01*
X40051Y10049D01*
X45051Y15049D01*
X45051Y15049D01*
X45051Y15049D01*
X45803Y16173D01*
X46067Y17500D01*
Y77300D01*
X46067Y77300D01*
X46067Y77300D01*
Y77300D01*
Y106300D01*
X46067Y106300D01*
X46067Y106300D01*
Y106300D01*
Y111210D01*
X46083Y111217D01*
X46083Y111217D01*
X46143Y111361D01*
D01*
X46143Y111361D01*
D01*
X46143D01*
D01*
Y111361D01*
X47039Y112744D01*
X47039Y112744D01*
X47388Y114500D01*
X47039Y116256D01*
X46044Y117744D01*
X44556Y118739D01*
X42800Y119088D01*
X42414Y119811D01*
X43192Y120590D01*
X44556Y120861D01*
X46044Y121855D01*
X47039Y123344D01*
X47388Y125100D01*
X47039Y126856D01*
X46044Y128344D01*
X44556Y129339D01*
X44074Y130927D01*
X63278Y150131D01*
X68937D01*
Y150131D01*
X68938Y150131D01*
X70939D01*
X71044Y150061D01*
X72800Y149712D01*
X74556Y150061D01*
X76044Y151056D01*
X77039Y152544D01*
X77388Y154300D01*
X77039Y156056D01*
X76044Y157544D01*
X74556Y158539D01*
X72800Y158888D01*
X71044Y158539D01*
X69556Y157544D01*
X69528Y157503D01*
X68962Y157269D01*
X61800D01*
X60434Y156997D01*
X59277Y156223D01*
X40738Y137684D01*
X38974Y138627D01*
X38988Y138700D01*
X38639Y140456D01*
X37644Y141944D01*
X36156Y142939D01*
X34400Y143288D01*
X32644Y142939D01*
X31489Y142167D01*
X28600D01*
X27273Y141903D01*
X26149Y141151D01*
X24849Y139852D01*
X22955Y140495D01*
X22743Y142111D01*
X21735Y144543D01*
X20132Y146632D01*
X18043Y148235D01*
X15611Y149243D01*
X13000Y149586D01*
X10389Y149243D01*
X7957Y148235D01*
X5868Y146632D01*
X4953Y145439D01*
X3059Y146082D01*
Y158318D01*
X4953Y158961D01*
X5868Y157768D01*
X7957Y156165D01*
X10389Y155157D01*
X13000Y154814D01*
X15611Y155157D01*
X18043Y156165D01*
X20132Y157768D01*
X21735Y159857D01*
X22743Y162290D01*
X23086Y164900D01*
X22743Y167511D01*
X21735Y169943D01*
X20132Y172032D01*
X18043Y173635D01*
X15611Y174643D01*
X13000Y174986D01*
X10389Y174643D01*
X7957Y173635D01*
X5868Y172032D01*
X4953Y170839D01*
X3059Y171482D01*
Y183718D01*
X4953Y184361D01*
X5868Y183168D01*
X7957Y181565D01*
X10389Y180557D01*
X13000Y180214D01*
X15611Y180557D01*
X18043Y181565D01*
X20132Y183168D01*
X21735Y185257D01*
X22743Y187689D01*
X23086Y190300D01*
X22743Y192910D01*
X21735Y195343D01*
X20132Y197432D01*
X18043Y199035D01*
X15611Y200043D01*
Y200043D01*
X15617Y200141D01*
X129500D01*
Y180300D01*
D02*
G37*
%LPC*%
G36*
X102600Y188288D02*
X100844Y187939D01*
X99356Y186944D01*
X98361Y185456D01*
X98012Y183700D01*
X98361Y181944D01*
X99356Y180456D01*
X100844Y179461D01*
X102600Y179112D01*
X104356Y179461D01*
X105844Y180456D01*
X106839Y181944D01*
X107188Y183700D01*
X106839Y185456D01*
X105844Y186944D01*
X104356Y187939D01*
X102600Y188288D01*
D02*
G37*
%LPD*%
D10*
X43578Y113722D02*
G03*
X42600Y111361I2360J-2360D01*
G01*
X15576Y125676D02*
G03*
X11204Y113973I10644J-10644D01*
G01*
X19917Y130017D02*
G03*
X13997Y114170I14413J-14413D01*
G01*
X24258Y134358D02*
G03*
X16791Y114367I18182J-18182D01*
G01*
X15687Y40587D02*
G03*
X22174Y37900I6487J6487D01*
G01*
X17667Y42567D02*
G03*
X28934Y37900I11267J11267D01*
G01*
X22174D02*
G03*
X15687Y35213I0J-9174D01*
G01*
X28934Y37900D02*
G03*
X17667Y33233I0J-15934D01*
G01*
X18138Y16643D02*
G03*
X26799Y12500I8661J6983D01*
G01*
D02*
G03*
X18138Y8357I0J-11126D01*
G01*
X13000Y37900D02*
X29867D01*
X36800Y44833D01*
Y119100D01*
X32800Y138700D02*
X34400D01*
X34400Y138700D01*
X28600Y138700D02*
X32800D01*
X13000Y123100D02*
X28600Y138700D01*
X13000Y114100D02*
Y123100D01*
X42600Y106300D02*
Y114300D01*
X42800Y114500D01*
X42600Y17500D02*
Y77300D01*
X37600Y12500D02*
X42600Y17500D01*
X26800Y12500D02*
X37600D01*
X13000D02*
X26800D01*
X36800Y119100D02*
X42800Y125100D01*
X42600Y77300D02*
Y106300D01*
D13*
X68937Y153700D02*
G03*
X72093Y155007I0J4463D01*
G01*
X13000Y66800D02*
G03*
X18975Y69275I0J8450D01*
G01*
X13000Y69800D02*
G03*
X24096Y74396I0J15692D01*
G01*
X18975Y69275D02*
G03*
X16500Y63300I5975J-5975D01*
G01*
X24096Y74396D02*
G03*
X19500Y63300I11096J-11096D01*
G01*
X35300Y127200D02*
X61800Y153700D01*
X31600Y123500D02*
X35300Y127200D01*
X61800Y153700D02*
X72800D01*
X31600Y81900D02*
Y123500D01*
X13000Y63300D02*
X31600Y81900D01*
X72800Y153700D02*
Y154300D01*
D22*
X77000Y106000D02*
D03*
D23*
X13000Y12500D02*
D03*
D24*
X139500Y164900D02*
D03*
Y12500D02*
D03*
X13000Y37900D02*
D03*
Y63300D02*
D03*
Y114100D02*
D03*
D25*
X67500Y96500D02*
D03*
X67500Y106000D02*
D03*
Y115500D02*
D03*
X86500Y96500D02*
D03*
Y115500D02*
D03*
X77000Y96500D02*
D03*
X86500Y106000D02*
D03*
X77000Y115500D02*
D03*
D26*
X53600Y127000D02*
D03*
X58600Y131800D02*
D03*
X70800Y57400D02*
D03*
X73200Y76600D02*
D03*
X115000Y47300D02*
D03*
X101000Y149600D02*
D03*
X84400Y163100D02*
D03*
X100800Y161400D02*
D03*
X100400Y172200D02*
D03*
X64400Y184900D02*
D03*
X72800Y184700D02*
D03*
X72200Y176900D02*
D03*
X72600Y193100D02*
D03*
X64800Y192500D02*
D03*
Y177100D02*
D03*
X33600Y169100D02*
D03*
X42000Y168700D02*
D03*
X48600Y167700D02*
D03*
X50200Y132800D02*
D03*
X26200Y66100D02*
D03*
X49600Y80200D02*
D03*
X52200Y86200D02*
D03*
X111800Y15500D02*
D03*
X112400Y26300D02*
D03*
X99800Y14900D02*
D03*
X68000Y16100D02*
D03*
X87800Y15500D02*
D03*
Y8500D02*
D03*
X67800Y8100D02*
D03*
X78400Y56500D02*
D03*
X79800Y65700D02*
D03*
X66200Y76400D02*
D03*
X34400Y138700D02*
D03*
X42800Y114500D02*
D03*
Y125100D02*
D03*
X72800Y154300D02*
D03*
X124000Y24400D02*
D03*
X124400Y11000D02*
D03*
M02*
