%FSLAX44Y44*%
%MOMM*%
G71*
G01*
G75*
G04 Layer_Physical_Order=1*
G04 Layer_Color=204*
%ADD10C,0.2800*%
%ADD11C,1.0000*%
%ADD12C,0.5000*%
%ADD13C,0.3000*%
%ADD14R,0.3000X0.7500*%
%ADD15R,0.7500X0.3000*%
%ADD16R,0.9000X0.8000*%
%ADD17R,0.8000X0.9000*%
%ADD18R,1.4700X1.1600*%
%ADD19R,1.5500X1.1600*%
G04:AMPARAMS|DCode=20|XSize=1.4001mm|YSize=1.1999mm|CornerRadius=0.12mm|HoleSize=0mm|Usage=FLASHONLY|Rotation=0.000|XOffset=0mm|YOffset=0mm|HoleType=Round|Shape=RoundedRectangle|*
%AMROUNDEDRECTD20*
21,1,1.4001,0.9599,0,0,0.0*
21,1,1.1601,1.1999,0,0,0.0*
1,1,0.2400,0.5800,-0.4800*
1,1,0.2400,-0.5800,-0.4800*
1,1,0.2400,-0.5800,0.4800*
1,1,0.2400,0.5800,0.4800*
%
%ADD20ROUNDEDRECTD20*%
G04:AMPARAMS|DCode=21|XSize=0.7mm|YSize=1.1999mm|CornerRadius=0.07mm|HoleSize=0mm|Usage=FLASHONLY|Rotation=0.000|XOffset=0mm|YOffset=0mm|HoleType=Round|Shape=RoundedRectangle|*
%AMROUNDEDRECTD21*
21,1,0.7000,1.0599,0,0,0.0*
21,1,0.5600,1.1999,0,0,0.0*
1,1,0.1400,0.2800,-0.5300*
1,1,0.1400,-0.2800,-0.5300*
1,1,0.1400,-0.2800,0.5300*
1,1,0.1400,0.2800,0.5300*
%
%ADD21ROUNDEDRECTD21*%
%ADD22R,2.5000X2.5000*%
%ADD23R,1.6000X1.6000*%
%ADD24C,1.6000*%
%ADD25C,0.6000*%
%ADD26C,0.5000*%
G36*
X149200Y77300D02*
X121800D01*
X102000Y97100D01*
X92800D01*
Y99900D01*
X149200D01*
Y77300D01*
D02*
G37*
G36*
X5868Y106968D02*
X7957Y105365D01*
X10389Y104357D01*
X13000Y104014D01*
X13252Y104047D01*
X16239Y103654D01*
X19257Y102404D01*
X21565Y100632D01*
X26149Y96049D01*
X27273Y95297D01*
X28437Y95066D01*
Y95000D01*
X28437D01*
Y83000D01*
X41437D01*
Y86149D01*
X42465Y86993D01*
X45612Y88675D01*
X49026Y89711D01*
X51961Y90000D01*
X61000D01*
Y87902D01*
X58100Y85002D01*
X58029Y84948D01*
X58037Y84939D01*
X52049Y78951D01*
X51297Y77827D01*
X51033Y76500D01*
Y74984D01*
X51002Y74984D01*
Y74984D01*
X51002D01*
X51003Y74929D01*
X49604Y73500D01*
X49000D01*
Y60500D01*
X49604D01*
X51003Y59071D01*
X51002Y59016D01*
X51002D01*
Y59016D01*
X51033Y59016D01*
Y58168D01*
X50252Y57845D01*
X48994Y57595D01*
X45344Y61244D01*
X43856Y62239D01*
X42100Y62588D01*
X41437D01*
Y63500D01*
X28437D01*
Y55306D01*
X26336Y55038D01*
X26183Y55164D01*
X26124Y55223D01*
X24523Y57309D01*
X23408Y60001D01*
X23030Y62872D01*
X23086Y63300D01*
X22743Y65911D01*
X21735Y68343D01*
X20132Y70432D01*
X18043Y72035D01*
X15611Y73043D01*
X13000Y73386D01*
X10389Y73043D01*
X7957Y72035D01*
X5868Y70432D01*
X4953Y69239D01*
X3059Y69882D01*
Y82118D01*
X4953Y82761D01*
X5868Y81568D01*
X7957Y79965D01*
X10389Y78957D01*
X13000Y78614D01*
X15611Y78957D01*
X18043Y79965D01*
X20132Y81568D01*
X21735Y83657D01*
X22743Y86089D01*
X23086Y88700D01*
X22743Y91311D01*
X21735Y93743D01*
X20132Y95832D01*
X18043Y97435D01*
X15611Y98443D01*
X13000Y98786D01*
X10389Y98443D01*
X7957Y97435D01*
X5868Y95832D01*
X4953Y94639D01*
X3059Y95282D01*
Y107518D01*
X4953Y108161D01*
X5868Y106968D01*
D02*
G37*
G36*
X128480Y33050D02*
X130585Y32179D01*
X132289Y30871D01*
X132368Y30768D01*
X132367Y30767D01*
X132390Y30751D01*
X134457Y29165D01*
X136889Y28157D01*
X139500Y27814D01*
X142111Y28157D01*
X144543Y29165D01*
X146632Y30768D01*
X147447Y31830D01*
X149341Y31188D01*
Y3059D01*
X58908D01*
X58327Y4973D01*
X58748Y5254D01*
X59345Y6147D01*
X59554Y7200D01*
Y17799D01*
X59345Y18853D01*
X58748Y19746D01*
X58370Y19998D01*
X58951Y21912D01*
X74500D01*
X76256Y22261D01*
X77744Y23256D01*
X87801Y33312D01*
X126494D01*
X128480Y33050D01*
D02*
G37*
G36*
X119600Y74700D02*
X149000D01*
Y51500D01*
X121200D01*
X96000Y76700D01*
Y89100D01*
X92800Y92300D01*
Y94900D01*
X99400D01*
X119600Y74700D01*
D02*
G37*
G36*
X149000Y127900D02*
X112400D01*
X101600Y117100D01*
X92800D01*
Y119700D01*
X98000Y123300D01*
X105391Y141407D01*
X126750Y150900D01*
X149000D01*
Y127900D01*
D02*
G37*
G36*
X92500Y198500D02*
X92500D01*
Y195679D01*
X92386Y195530D01*
X91680Y193827D01*
X91440Y192000D01*
X91680Y190173D01*
X92386Y188470D01*
X92500Y188321D01*
Y185500D01*
X95015D01*
X95327Y185188D01*
X95540Y184120D01*
Y183700D01*
X95780Y181873D01*
X96486Y180170D01*
X97608Y178708D01*
X99070Y177586D01*
X100773Y176880D01*
X102600Y176640D01*
X103850Y176804D01*
X105100Y176640D01*
X106927Y176880D01*
X108630Y177586D01*
X110092Y178708D01*
X111215Y180170D01*
X111920Y181873D01*
X112147Y183600D01*
X127850D01*
Y183600D01*
X127850D01*
D01*
D01*
X128086D01*
X129500Y182186D01*
Y180300D01*
X149341D01*
Y153219D01*
X149000Y152939D01*
X126750D01*
X126724Y152934D01*
X126698Y152938D01*
X126334Y152857D01*
X125970Y152784D01*
X125948Y152769D01*
X125922Y152763D01*
X104562Y143270D01*
X104254Y143053D01*
X103941Y142841D01*
X103930Y142824D01*
X103912Y142812D01*
X103711Y142493D01*
X103503Y142177D01*
X96341Y124632D01*
X94772Y123545D01*
X93000Y124473D01*
Y131250D01*
X92967D01*
Y138209D01*
X94250D01*
Y153808D01*
X77792D01*
X77388Y154300D01*
X77039Y156056D01*
X76044Y157544D01*
X74556Y158539D01*
X72800Y158888D01*
X71044Y158539D01*
X69556Y157544D01*
X68561Y156056D01*
X68326Y154872D01*
X68098Y154645D01*
X68098Y154645D01*
X68098D01*
Y154645D01*
X68098Y154645D01*
X68081Y154662D01*
X68079Y154659D01*
X68079D01*
X67969Y154515D01*
X67969Y154515D01*
X67969Y154515D01*
X66891Y153438D01*
X66000Y153069D01*
D01*
Y153069D01*
X66000D01*
X66000D01*
D01*
X65655Y153000D01*
X60667D01*
Y169800D01*
X60403Y171127D01*
X59651Y172251D01*
X56743Y175159D01*
X56743Y175159D01*
X56763Y175179D01*
X56597Y175306D01*
X55536Y176366D01*
X55557Y176388D01*
X55557D01*
Y176388D01*
D01*
X55557Y176388D01*
Y176388D01*
D01*
D01*
X55557Y176388D01*
X55205Y177239D01*
X55097Y177500D01*
X55097D01*
D01*
D01*
X55067D01*
X55000Y177835D01*
Y184500D01*
D01*
Y184500D01*
X55000Y184500D01*
Y185064D01*
X55000D01*
Y198064D01*
X43000D01*
Y185063D01*
X43000Y185064D01*
X43000Y184500D01*
X43000D01*
Y171500D01*
X48665D01*
X49000Y171433D01*
Y171433D01*
X49017Y171447D01*
X50544Y171143D01*
X51780Y170318D01*
X53733Y168364D01*
Y140700D01*
X53997Y139373D01*
X54749Y138249D01*
X56749Y136249D01*
X56749D01*
X56749Y136249D01*
X56749Y136249D01*
Y136249D01*
X57873Y135497D01*
X59200Y135233D01*
X64943D01*
X66033Y134143D01*
Y131250D01*
X66000D01*
Y119750D01*
X90750D01*
Y115000D01*
Y110000D01*
Y105000D01*
Y100000D01*
Y95000D01*
Y92250D01*
X76000D01*
Y80750D01*
X76033D01*
Y80000D01*
X76297Y78673D01*
X77049Y77549D01*
X78173Y76797D01*
X78581Y76716D01*
X82706Y72591D01*
X82680Y72527D01*
X82440Y70700D01*
X82680Y68873D01*
X83385Y67170D01*
X84508Y65708D01*
X88250Y61965D01*
Y49191D01*
X107750D01*
Y59453D01*
X109598Y60218D01*
X119758Y50058D01*
X120420Y49616D01*
X121200Y49461D01*
X136153D01*
X136543Y47499D01*
X134457Y46635D01*
X132390Y45049D01*
X132367Y45033D01*
X132368Y45032D01*
X132289Y44929D01*
X130585Y43621D01*
X128480Y42750D01*
X126494Y42488D01*
X85900D01*
X84144Y42139D01*
X82656Y41144D01*
X72600Y31088D01*
X50617D01*
X49852Y32936D01*
X50244Y33328D01*
X51239Y34817D01*
X51588Y36572D01*
Y53100D01*
X51538Y53353D01*
X53302Y54296D01*
X54127Y53470D01*
X55609Y51540D01*
X56616Y49109D01*
X56937Y46667D01*
Y46500D01*
X56933D01*
X56937Y46481D01*
Y41701D01*
X57185Y40452D01*
X57893Y39394D01*
X58951Y38686D01*
X60200Y38438D01*
X71800D01*
X73049Y38686D01*
X74107Y39394D01*
X74815Y40452D01*
X75063Y41701D01*
Y51300D01*
X74815Y52548D01*
X74107Y53607D01*
X73049Y54314D01*
X71800Y54562D01*
X65019D01*
X64999Y54566D01*
Y54562D01*
X64814D01*
X62986Y54926D01*
X61452Y55951D01*
X59001Y58402D01*
X58902Y58523D01*
X58891Y58512D01*
X58891Y58512D01*
X58014Y59389D01*
X58235Y60500D01*
X61000D01*
Y73500D01*
X59016D01*
X58250Y75348D01*
X62940Y80037D01*
X62940Y80037D01*
X62952Y80024D01*
X62952Y80024D01*
X62952Y80024D01*
D01*
X62952Y80024D01*
X64500Y80665D01*
Y80683D01*
X64835Y80750D01*
X68000D01*
Y92250D01*
X63250D01*
Y95000D01*
Y100000D01*
Y105000D01*
Y110000D01*
Y115000D01*
Y122000D01*
X51750D01*
Y121967D01*
X51636D01*
X48495Y125107D01*
X48495Y125107D01*
X48497Y125109D01*
X48483Y125120D01*
X47111Y126491D01*
X47039Y126856D01*
X46044Y128344D01*
X44556Y129339D01*
X42800Y129688D01*
X41044Y129339D01*
X39556Y128344D01*
X38561Y126856D01*
X38212Y125100D01*
X38561Y123344D01*
X39556Y121855D01*
X41044Y120861D01*
X41351Y120800D01*
Y118800D01*
X41044Y118739D01*
X39556Y117744D01*
X38561Y116256D01*
X38212Y114500D01*
X38408Y113513D01*
X37271Y112127D01*
X35273Y112029D01*
X32867Y114436D01*
Y127855D01*
X33067Y128864D01*
X32718Y130620D01*
X31724Y132109D01*
X30235Y133103D01*
X28479Y133453D01*
X26723Y133103D01*
X25235Y132109D01*
X25102Y131909D01*
X23111Y132105D01*
X22844Y132751D01*
X22535Y135096D01*
X22809Y137177D01*
X22781Y137184D01*
X22880Y137936D01*
X22889Y137979D01*
X22887Y137988D01*
X23086Y139500D01*
X23045Y139811D01*
X23493Y143208D01*
X24924Y146664D01*
X25106Y146901D01*
X27000Y146258D01*
Y140436D01*
X27407D01*
X29516Y140160D01*
Y140160D01*
X29533Y140160D01*
Y139700D01*
X29797Y138373D01*
X29910Y138204D01*
X30161Y136944D01*
X31156Y135455D01*
X32644Y134461D01*
X34400Y134112D01*
X36156Y134461D01*
X37644Y135455D01*
X38639Y136944D01*
X38988Y138700D01*
X38712Y140086D01*
X39000Y140436D01*
X39000D01*
Y152936D01*
Y165937D01*
X27000D01*
Y159271D01*
X26991Y159227D01*
D01*
X26979Y159239D01*
X26972Y159246D01*
X26972D01*
D01*
D01*
X26969Y159249D01*
X26969Y159249D01*
X26964Y159238D01*
X26964Y159238D01*
X26942Y159184D01*
X26918Y159127D01*
X26918D01*
X26918Y159127D01*
X26875Y159022D01*
X22367Y154515D01*
X22317D01*
X22317D01*
X22086Y154234D01*
X20377Y152524D01*
X18350Y150969D01*
X15769Y149900D01*
X13193Y149561D01*
X13000Y149586D01*
X10389Y149243D01*
X7957Y148235D01*
X5868Y146632D01*
X4953Y145439D01*
X3059Y146082D01*
Y158318D01*
X4953Y158961D01*
X5868Y157768D01*
X7957Y156165D01*
X10389Y155157D01*
X13000Y154814D01*
X15611Y155157D01*
X18043Y156165D01*
X20132Y157768D01*
X21735Y159857D01*
X22743Y162290D01*
X23086Y164900D01*
X22743Y167511D01*
X21735Y169943D01*
X20132Y172032D01*
X18043Y173635D01*
X15611Y174643D01*
X13000Y174986D01*
X10389Y174643D01*
X7957Y173635D01*
X5868Y172032D01*
X4953Y170839D01*
X3059Y171482D01*
Y183718D01*
X4953Y184361D01*
X5868Y183168D01*
X7957Y181565D01*
X10389Y180557D01*
X13000Y180214D01*
X15611Y180557D01*
X18043Y181565D01*
X20110Y183151D01*
X20133Y183167D01*
X20132Y183168D01*
X20211Y183271D01*
X21915Y184579D01*
X24020Y185450D01*
X26006Y185712D01*
X27000D01*
Y184937D01*
X39000D01*
Y197936D01*
X27000D01*
Y196274D01*
X25496Y194955D01*
X24020Y195150D01*
X21915Y196021D01*
X20211Y197329D01*
X20132Y197432D01*
X20133Y197433D01*
X20110Y197449D01*
X18043Y199035D01*
X15611Y200043D01*
Y200043D01*
X15617Y200141D01*
X92500D01*
Y198500D01*
D02*
G37*
G36*
X129400Y102100D02*
X92800D01*
Y109900D01*
X127600D01*
X129400Y102100D01*
D02*
G37*
G36*
X149200Y103531D02*
X132000Y103700D01*
X129200Y112100D01*
X92800D01*
Y114900D01*
X103000D01*
X113400Y125300D01*
X149200D01*
Y103531D01*
D02*
G37*
D10*
X46044Y122656D02*
G03*
X42800Y124000I-3244J-3244D01*
G01*
X43578Y115278D02*
G03*
X47869Y113500I4291J4291D01*
G01*
X33000Y144735D02*
G03*
X35178Y139478I7435J0D01*
G01*
X13000Y146100D02*
G03*
X22995Y150240I0J14136D01*
G01*
X20014Y147259D02*
G03*
X16800Y139500I7759J-7759D01*
G01*
X24794Y152038D02*
G03*
X19600Y139500I12538J-12538D01*
G01*
X16698Y138624D02*
G03*
X19202Y129799I9160J-2169D01*
G01*
X19422Y137979D02*
G03*
X22750Y126250I12173J-2883D01*
G01*
X18292Y130708D02*
G03*
X13000Y132900I-5292J-5292D01*
G01*
X16800Y114100D02*
G03*
X19487Y107613I9174J0D01*
G01*
X19487Y107613D02*
G03*
X13000Y110300I-6487J-6487D01*
G01*
X24267Y102833D02*
G03*
X13000Y107500I-11267J-11267D01*
G01*
X52516Y8515D02*
G03*
X50139Y9500I-2377J-2377D01*
G01*
X47723D02*
G03*
X52516Y11485I0J6779D01*
G01*
X63200Y46500D02*
G03*
X61220Y51280I-6760J0D01*
G01*
X60400Y46500D02*
G03*
X56440Y56060I-13520J0D01*
G01*
X58856Y53644D02*
G03*
X64999Y51100I6143J6143D01*
G01*
X87611Y141397D02*
G03*
X84500Y133886I7511J-7511D01*
G01*
D02*
G03*
X81389Y141397I-10623J0D01*
G01*
X35436Y91600D02*
G03*
X38168Y92731I0J3863D01*
G01*
X38936Y93500D02*
G03*
X37940Y89700I2752J-2752D01*
G01*
X39058Y93500D02*
G03*
X33315Y91121I0J-8121D01*
G01*
X45818Y93500D02*
G03*
X35295Y89142I0J-14881D01*
G01*
X52577Y93500D02*
G03*
X37275Y87162I0J-21641D01*
G01*
X29487Y156732D02*
G03*
X30400Y158937I-2205J2205D01*
G01*
X34839Y144598D02*
G03*
X33000Y140160I4439J-4439D01*
G01*
D02*
G03*
X31161Y144598I-6277J0D01*
G01*
X36902Y11839D02*
G03*
X42547Y9500I5645J5645D01*
G01*
X40133D02*
G03*
X36902Y8162I0J-4570D01*
G01*
X50838Y188725D02*
G03*
X49000Y184287I4439J-4439D01*
G01*
D02*
G03*
X47161Y188725I-6277J0D01*
G01*
X56838Y64661D02*
G03*
X54500Y59016I5646J-5646D01*
G01*
Y61430D02*
G03*
X53162Y64661I-4570J0D01*
G01*
Y69338D02*
G03*
X54500Y72570I-3231J3231D01*
G01*
Y74984D02*
G03*
X56838Y69338I7984J0D01*
G01*
X51600Y177500D02*
G03*
X53085Y173915I5070J0D01*
G01*
X54292Y172708D02*
G03*
X49000Y174900I-5292J-5292D01*
G01*
X47161Y180338D02*
G03*
X49000Y184777I-4439J4439D01*
G01*
D02*
G03*
X50838Y180338I6277J0D01*
G01*
X64500Y84150D02*
G03*
X60488Y82488I0J-5673D01*
G01*
X89500Y125500D02*
Y139508D01*
X82704Y146304D02*
X89500Y139508D01*
X79500Y143100D02*
X82704Y146304D01*
X79500Y125500D02*
Y143100D01*
X84500Y75700D02*
Y86500D01*
X80200Y80000D02*
X89500Y70700D01*
X79500Y80000D02*
X80200D01*
X89500Y70700D02*
Y86500D01*
X79500Y80000D02*
Y86500D01*
X33000Y139700D02*
Y146937D01*
Y139700D02*
X34200Y138500D01*
X34200D01*
X34400Y138700D01*
X29400Y113000D02*
Y127944D01*
Y113000D02*
X33900Y108500D01*
X36800D01*
X43400Y113500D02*
X51200D01*
X42600Y114300D02*
X43400Y113500D01*
X42600Y114300D02*
X42800Y114500D01*
X50200Y118500D02*
X57500D01*
X42600Y126100D02*
X50200Y118500D01*
X42600Y125300D02*
Y126100D01*
Y125300D02*
X42800Y125100D01*
X32192Y159437D02*
X33000D01*
X13000Y140245D02*
X32192Y159437D01*
X13000Y139500D02*
Y140245D01*
X17250Y131750D02*
X24500Y124500D01*
X13000Y136000D02*
X17250Y131750D01*
X49000Y178000D02*
Y191063D01*
Y178000D02*
X57200Y169800D01*
Y140700D02*
Y169800D01*
Y140700D02*
X59200Y138700D01*
X66379D01*
X69500Y135579D01*
Y125500D02*
Y135579D01*
X84500Y125500D02*
Y146009D01*
X34936Y89500D02*
X38937Y93500D01*
X57500D01*
X51001Y9500D02*
X54001Y12500D01*
X34564Y9500D02*
X51001D01*
X54500Y58000D02*
Y76500D01*
Y58000D02*
X66000Y46500D01*
X54500Y76500D02*
X64500Y86500D01*
X49000Y113500D02*
X57500D01*
X36800Y108500D02*
X57500D01*
X24500Y109388D02*
X30388Y103500D01*
X13000Y136000D02*
Y139500D01*
X24500Y109388D02*
Y124500D01*
X30388Y103500D02*
X57500D01*
X13000Y114100D02*
X28600Y98500D01*
X57500D01*
D11*
X105100Y183700D02*
G03*
X103898Y186602I-4104J0D01*
G01*
X137379Y188179D02*
G03*
X128153Y192000I-9226J-9226D01*
G01*
X102600Y184016D02*
G03*
X99207Y192207I-11584J0D01*
G01*
X102600Y186044D02*
G03*
X99012Y192359I-7351J0D01*
G01*
X89500Y70700D02*
X98000Y62200D01*
Y56992D02*
Y62200D01*
X102600Y183700D02*
Y187900D01*
X98500Y192000D02*
X102600Y187900D01*
X99000Y192000D02*
X137800D01*
X139500Y190300D01*
D12*
X16889Y194189D02*
G03*
X26278Y190300I9389J9389D01*
G01*
D02*
G03*
X16889Y186411I0J-13278D01*
G01*
X135611Y34011D02*
G03*
X126222Y37900I-9389J-9389D01*
G01*
D02*
G03*
X135611Y41789I0J13278D01*
G01*
X34936Y27500D02*
G03*
X40043Y29615I0J7221D01*
G01*
X39765Y26500D02*
G03*
X35997Y24939I0J-5328D01*
G01*
X40265Y58000D02*
G03*
X36497Y56439I0J-5328D01*
G01*
X32364Y190300D02*
X33000Y190937D01*
X13000Y190300D02*
X32364D01*
X61800Y26500D02*
X74500D01*
X34437D02*
X61800D01*
X85900Y37900D02*
X139500D01*
X74500Y26500D02*
X85900Y37900D01*
X36927Y26500D02*
X47000Y36572D01*
Y53100D01*
X42100Y58000D02*
X47000Y53100D01*
X34936Y58000D02*
X42100D01*
X34437Y26500D02*
X36927D01*
X33200D02*
X34437D01*
D13*
X16499Y63232D02*
G03*
X18815Y57485I7910J-153D01*
G01*
X19499Y63174D02*
G03*
X23799Y52501I14690J-284D01*
G01*
X18815Y57485D02*
G03*
X13068Y59801I-5594J-5594D01*
G01*
X23799Y52501D02*
G03*
X13126Y56801I-10389J-10389D01*
G01*
X32796Y39732D02*
G03*
X29735Y41000I-3061J-3061D01*
G01*
X28700D02*
G03*
X32536Y42963I0J4730D01*
G01*
X68500Y147000D02*
G03*
X70969Y141040I8429J0D01*
G01*
X68576Y143433D02*
G03*
X66000Y144500I-2576J-2576D01*
G01*
Y149500D02*
G03*
X69414Y150914I0J4828D01*
G01*
X70621Y152121D02*
G03*
X68500Y147000I5121J-5121D01*
G01*
X65500D02*
X72800Y154300D01*
X65500Y146509D02*
Y147000D01*
Y146509D02*
X74500Y137509D01*
Y125500D02*
Y137509D01*
X28700Y41000D02*
X35064D01*
X23800Y45900D02*
X28700Y41000D01*
X23800Y45900D02*
Y52500D01*
X13000Y63300D02*
X23800Y52500D01*
D14*
X64500Y86500D02*
D03*
X69500D02*
D03*
X74500D02*
D03*
X79500D02*
D03*
X84500D02*
D03*
X89500D02*
D03*
Y125500D02*
D03*
X84500D02*
D03*
X79500D02*
D03*
X74500D02*
D03*
X69500D02*
D03*
X64500D02*
D03*
D15*
X96500Y93500D02*
D03*
Y98500D02*
D03*
Y103500D02*
D03*
Y108500D02*
D03*
Y113500D02*
D03*
Y118500D02*
D03*
X57500D02*
D03*
Y113500D02*
D03*
Y108500D02*
D03*
Y103500D02*
D03*
Y98500D02*
D03*
Y93500D02*
D03*
D16*
X65500Y147000D02*
D03*
Y163000D02*
D03*
X35064Y41500D02*
D03*
X34936Y57500D02*
D03*
Y89000D02*
D03*
X35064Y73000D02*
D03*
X34564Y10000D02*
D03*
X34437Y26000D02*
D03*
D17*
X98500Y192000D02*
D03*
X82500D02*
D03*
X71000Y67000D02*
D03*
X55000D02*
D03*
X33000Y146937D02*
D03*
X49000Y147064D02*
D03*
Y159564D02*
D03*
X33000Y159437D02*
D03*
Y178000D02*
D03*
X49000D02*
D03*
X33000Y191437D02*
D03*
X49000Y191563D02*
D03*
D18*
X118500Y173600D02*
D03*
Y191400D02*
D03*
D19*
X84500Y146009D02*
D03*
Y175991D02*
D03*
X98000Y27009D02*
D03*
Y56992D02*
D03*
D20*
X66000Y46500D02*
D03*
D21*
X77999Y12500D02*
D03*
X54001D02*
D03*
D22*
X77000Y106000D02*
D03*
D23*
X139500Y190300D02*
D03*
X13000Y12500D02*
D03*
D24*
X139500Y164900D02*
D03*
Y139500D02*
D03*
Y114100D02*
D03*
Y88700D02*
D03*
Y63300D02*
D03*
Y37900D02*
D03*
Y12500D02*
D03*
X13000Y37900D02*
D03*
Y63300D02*
D03*
Y88700D02*
D03*
Y114100D02*
D03*
Y139500D02*
D03*
Y164900D02*
D03*
Y190300D02*
D03*
D25*
X67500Y96500D02*
D03*
X67500Y106000D02*
D03*
Y115500D02*
D03*
X86500Y96500D02*
D03*
Y115500D02*
D03*
X77000Y96500D02*
D03*
X86500Y106000D02*
D03*
X77000Y115500D02*
D03*
X125500Y105800D02*
D03*
X118600Y105900D02*
D03*
X111600Y106100D02*
D03*
X104800D02*
D03*
D26*
X53600Y127000D02*
D03*
X58600Y131800D02*
D03*
X70800Y57400D02*
D03*
X73200Y76600D02*
D03*
X115000Y47300D02*
D03*
X101000Y149600D02*
D03*
X84400Y163100D02*
D03*
X100800Y161400D02*
D03*
X100400Y172200D02*
D03*
X64400Y184900D02*
D03*
X72800Y184700D02*
D03*
X72200Y176900D02*
D03*
X72600Y193100D02*
D03*
X64800Y192500D02*
D03*
Y177100D02*
D03*
X33600Y169100D02*
D03*
X42000Y168700D02*
D03*
X48600Y167700D02*
D03*
X50200Y132800D02*
D03*
X26200Y66100D02*
D03*
X49600Y80200D02*
D03*
X52200Y86200D02*
D03*
X111800Y15500D02*
D03*
X112400Y26300D02*
D03*
X99800Y14900D02*
D03*
X68000Y16100D02*
D03*
X87800Y15500D02*
D03*
Y8500D02*
D03*
X67800Y8100D02*
D03*
X78400Y56500D02*
D03*
X79800Y65700D02*
D03*
X66200Y76400D02*
D03*
X102600Y183700D02*
D03*
X34400Y138700D02*
D03*
X28479Y128864D02*
D03*
X42800Y114500D02*
D03*
Y125100D02*
D03*
X72800Y154300D02*
D03*
X124000Y24400D02*
D03*
X124400Y11000D02*
D03*
M02*
