%FSLAX44Y44*%
%MOMM*%
G71*
G01*
G75*
G04 Layer_Color=32896*
%ADD10C,0.2800*%
%ADD11C,1.0000*%
%ADD12C,0.5000*%
%ADD13C,0.3000*%
%ADD14R,0.3000X0.7500*%
%ADD15R,0.7500X0.3000*%
%ADD16R,0.9000X0.8000*%
%ADD17R,0.8000X0.9000*%
%ADD18R,1.4700X1.1600*%
%ADD19R,1.5500X1.1600*%
G04:AMPARAMS|DCode=20|XSize=1.4001mm|YSize=1.1999mm|CornerRadius=0.12mm|HoleSize=0mm|Usage=FLASHONLY|Rotation=0.000|XOffset=0mm|YOffset=0mm|HoleType=Round|Shape=RoundedRectangle|*
%AMROUNDEDRECTD20*
21,1,1.4001,0.9599,0,0,0.0*
21,1,1.1601,1.1999,0,0,0.0*
1,1,0.2400,0.5800,-0.4800*
1,1,0.2400,-0.5800,-0.4800*
1,1,0.2400,-0.5800,0.4800*
1,1,0.2400,0.5800,0.4800*
%
%ADD20ROUNDEDRECTD20*%
G04:AMPARAMS|DCode=21|XSize=0.7mm|YSize=1.1999mm|CornerRadius=0.07mm|HoleSize=0mm|Usage=FLASHONLY|Rotation=0.000|XOffset=0mm|YOffset=0mm|HoleType=Round|Shape=RoundedRectangle|*
%AMROUNDEDRECTD21*
21,1,0.7000,1.0599,0,0,0.0*
21,1,0.5600,1.1999,0,0,0.0*
1,1,0.1400,0.2800,-0.5300*
1,1,0.1400,-0.2800,-0.5300*
1,1,0.1400,-0.2800,0.5300*
1,1,0.1400,0.2800,0.5300*
%
%ADD21ROUNDEDRECTD21*%
%ADD22R,2.5000X2.5000*%
%ADD23R,1.6000X1.6000*%
%ADD24C,1.6000*%
%ADD25C,0.6000*%
%ADD26C,0.5000*%
%ADD27C,0.6000*%
%ADD28C,2.0160*%
%ADD29C,1.3160*%
%ADD30C,0.2000*%
%ADD31C,0.1270*%
%ADD32R,0.7700X0.7700*%
%ADD33R,0.7700X0.7700*%
%ADD34R,0.7800X0.7700*%
%ADD35R,0.7700X0.7700*%
%ADD36R,0.5032X0.9532*%
%ADD37R,0.9532X0.5032*%
%ADD38R,1.1032X1.0032*%
%ADD39R,1.0032X1.1032*%
%ADD40R,1.6732X1.3632*%
%ADD41R,1.7532X1.3632*%
G04:AMPARAMS|DCode=42|XSize=1.6033mm|YSize=1.4031mm|CornerRadius=0.1403mm|HoleSize=0mm|Usage=FLASHONLY|Rotation=0.000|XOffset=0mm|YOffset=0mm|HoleType=Round|Shape=RoundedRectangle|*
%AMROUNDEDRECTD42*
21,1,1.6033,1.1225,0,0,0.0*
21,1,1.3226,1.4031,0,0,0.0*
1,1,0.2806,0.6613,-0.5612*
1,1,0.2806,-0.6613,-0.5612*
1,1,0.2806,-0.6613,0.5612*
1,1,0.2806,0.6613,0.5612*
%
%ADD42ROUNDEDRECTD42*%
G04:AMPARAMS|DCode=43|XSize=0.9032mm|YSize=1.4031mm|CornerRadius=0.0903mm|HoleSize=0mm|Usage=FLASHONLY|Rotation=0.000|XOffset=0mm|YOffset=0mm|HoleType=Round|Shape=RoundedRectangle|*
%AMROUNDEDRECTD43*
21,1,0.9032,1.2225,0,0,0.0*
21,1,0.7226,1.4031,0,0,0.0*
1,1,0.1806,0.3613,-0.6112*
1,1,0.1806,-0.3613,-0.6112*
1,1,0.1806,-0.3613,0.6112*
1,1,0.1806,0.3613,0.6112*
%
%ADD43ROUNDEDRECTD43*%
%ADD44R,2.7032X2.7032*%
%ADD45R,1.8032X1.8032*%
%ADD46C,1.8032*%
G36*
X118407Y84200D02*
X116424D01*
X115786Y86156D01*
X112665D01*
X112027Y84200D01*
X110030D01*
X113109Y92771D01*
X115259D01*
X118407Y84200D01*
D02*
G37*
G36*
X122151Y92909D02*
X122401Y92895D01*
X122872Y92812D01*
X123094Y92757D01*
X123302Y92688D01*
X123496Y92618D01*
X123663Y92563D01*
X123829Y92493D01*
X123968Y92424D01*
X124093Y92355D01*
X124204Y92299D01*
X124287Y92257D01*
X124342Y92216D01*
X124384Y92202D01*
X124398Y92188D01*
Y90593D01*
X124204Y90746D01*
X124010Y90885D01*
X123815Y91009D01*
X123635Y91107D01*
X123441Y91190D01*
X123274Y91259D01*
X122942Y91370D01*
X122803Y91412D01*
X122664Y91439D01*
X122553Y91453D01*
X122456Y91467D01*
X122373Y91481D01*
X122262D01*
X122026Y91467D01*
X121832Y91425D01*
X121652Y91370D01*
X121499Y91287D01*
X121375Y91204D01*
X121264Y91093D01*
X121180Y90982D01*
X121111Y90871D01*
X121055Y90760D01*
X121014Y90649D01*
X120986Y90538D01*
X120958Y90455D01*
Y90371D01*
X120945Y90316D01*
Y90274D01*
Y90260D01*
X120958Y90066D01*
X121000Y89872D01*
X121042Y89692D01*
X121097Y89525D01*
X121166Y89401D01*
X121208Y89290D01*
X121250Y89234D01*
X121264Y89206D01*
X121402Y89012D01*
X121555Y88804D01*
X121735Y88596D01*
X121915Y88402D01*
X122082Y88236D01*
X122220Y88097D01*
X122276Y88042D01*
X122318Y88000D01*
X122331Y87986D01*
X122345Y87972D01*
X124814Y85601D01*
Y84200D01*
X119211D01*
Y85684D01*
X122761D01*
Y85712D01*
X120972Y87334D01*
X120653Y87639D01*
X120362Y87944D01*
X120126Y88236D01*
X119918Y88527D01*
X119738Y88790D01*
X119586Y89054D01*
X119461Y89304D01*
X119364Y89525D01*
X119294Y89733D01*
X119239Y89928D01*
X119197Y90080D01*
X119169Y90219D01*
X119156Y90330D01*
X119142Y90413D01*
Y90469D01*
Y90482D01*
X119156Y90690D01*
X119169Y90885D01*
X119253Y91245D01*
X119377Y91550D01*
X119516Y91814D01*
X119655Y92008D01*
X119710Y92091D01*
X119780Y92161D01*
X119821Y92202D01*
X119863Y92244D01*
X119877Y92257D01*
X119891Y92271D01*
X120029Y92382D01*
X120182Y92493D01*
X120515Y92646D01*
X120848Y92771D01*
X121166Y92840D01*
X121444Y92895D01*
X121569Y92909D01*
X121680D01*
X121763Y92923D01*
X121888D01*
X122151Y92909D01*
D02*
G37*
G36*
X117277Y110400D02*
X114074D01*
X113810Y110414D01*
X113561Y110428D01*
X113325Y110469D01*
X113103Y110511D01*
X112909Y110553D01*
X112715Y110622D01*
X112548Y110677D01*
X112396Y110747D01*
X112257Y110802D01*
X112132Y110871D01*
X112035Y110927D01*
X111952Y110969D01*
X111883Y111024D01*
X111841Y111052D01*
X111813Y111066D01*
X111799Y111080D01*
X111647Y111218D01*
X111522Y111357D01*
X111411Y111510D01*
X111314Y111662D01*
X111231Y111815D01*
X111175Y111967D01*
X111064Y112272D01*
X111009Y112536D01*
X110995Y112647D01*
X110981Y112744D01*
X110967Y112827D01*
Y112882D01*
Y112924D01*
Y112938D01*
X110995Y113243D01*
X111051Y113506D01*
X111148Y113742D01*
X111245Y113950D01*
X111342Y114103D01*
X111439Y114228D01*
X111494Y114297D01*
X111522Y114325D01*
X111744Y114519D01*
X111980Y114658D01*
X112215Y114782D01*
X112451Y114866D01*
X112659Y114921D01*
X112812Y114963D01*
X112881Y114977D01*
X112923Y114990D01*
X112964D01*
Y115018D01*
X112715Y115101D01*
X112479Y115212D01*
X112285Y115337D01*
X112105Y115448D01*
X111966Y115559D01*
X111869Y115656D01*
X111813Y115712D01*
X111786Y115739D01*
X111633Y115947D01*
X111508Y116155D01*
X111425Y116363D01*
X111370Y116558D01*
X111342Y116724D01*
X111314Y116849D01*
Y116904D01*
Y116946D01*
Y116960D01*
Y116974D01*
X111328Y117140D01*
X111342Y117306D01*
X111439Y117598D01*
X111550Y117847D01*
X111688Y118069D01*
X111841Y118222D01*
X111952Y118347D01*
X112049Y118416D01*
X112063Y118444D01*
X112077D01*
X112229Y118541D01*
X112382Y118624D01*
X112729Y118749D01*
X113089Y118846D01*
X113436Y118901D01*
X113588Y118929D01*
X113741Y118943D01*
X113880Y118957D01*
X113991D01*
X114088Y118971D01*
X117277D01*
Y110400D01*
D02*
G37*
G36*
X124614Y66961D02*
Y65490D01*
X122769Y65907D01*
Y60415D01*
X124558D01*
Y59000D01*
X119205D01*
Y60415D01*
X120980D01*
Y67723D01*
X124614Y66961D01*
D02*
G37*
G36*
X115958Y33800D02*
X113004D01*
X112629Y33814D01*
X112283Y33856D01*
X111950Y33911D01*
X111631Y33980D01*
X111340Y34077D01*
X111076Y34174D01*
X110827Y34285D01*
X110591Y34396D01*
X110397Y34507D01*
X110216Y34618D01*
X110064Y34715D01*
X109939Y34812D01*
X109828Y34882D01*
X109759Y34937D01*
X109717Y34979D01*
X109703Y34993D01*
X109481Y35229D01*
X109287Y35478D01*
X109107Y35742D01*
X108968Y36005D01*
X108843Y36269D01*
X108732Y36532D01*
X108649Y36796D01*
X108580Y37045D01*
X108538Y37281D01*
X108497Y37503D01*
X108469Y37697D01*
X108441Y37863D01*
Y38002D01*
X108427Y38113D01*
Y38169D01*
Y38196D01*
X108441Y38571D01*
X108483Y38931D01*
X108538Y39264D01*
X108621Y39569D01*
X108732Y39860D01*
X108843Y40138D01*
X108982Y40388D01*
X109135Y40609D01*
X109301Y40817D01*
X109481Y41012D01*
X109675Y41192D01*
X109870Y41358D01*
X110078Y41497D01*
X110286Y41622D01*
X110702Y41844D01*
X111132Y42024D01*
X111548Y42149D01*
X111936Y42246D01*
X112283Y42301D01*
X112435Y42329D01*
X112574Y42343D01*
X112685Y42357D01*
X112796D01*
X112879Y42371D01*
X115958D01*
Y33800D01*
D02*
G37*
G36*
X122060D02*
X119993D01*
X117012Y42371D01*
X118926D01*
X120784Y36324D01*
X120867Y35991D01*
X120895Y35852D01*
X120923Y35728D01*
X120937Y35617D01*
X120950Y35534D01*
X120964Y35478D01*
Y35464D01*
X121006D01*
X121047Y35756D01*
X121075Y35908D01*
X121103Y36033D01*
X121131Y36144D01*
X121145Y36227D01*
X121172Y36296D01*
Y36310D01*
X123031Y42371D01*
X125000D01*
X122060Y33800D01*
D02*
G37*
G36*
X118526Y59000D02*
X116543D01*
X115905Y60956D01*
X112784D01*
X112146Y59000D01*
X110149D01*
X113228Y67571D01*
X115378D01*
X118526Y59000D01*
D02*
G37*
G36*
X120659Y169509D02*
X121034Y169468D01*
X121380Y169412D01*
X121713Y169329D01*
X122018Y169232D01*
X122296Y169121D01*
X122559Y169010D01*
X122795Y168885D01*
X123003Y168761D01*
X123183Y168650D01*
X123336Y168539D01*
X123475Y168442D01*
X123572Y168372D01*
X123655Y168303D01*
X123696Y168261D01*
X123710Y168247D01*
X123946Y167998D01*
X124140Y167734D01*
X124320Y167471D01*
X124459Y167193D01*
X124584Y166916D01*
X124695Y166639D01*
X124778Y166375D01*
X124847Y166126D01*
X124903Y165876D01*
X124944Y165654D01*
X124972Y165460D01*
X124986Y165280D01*
X125000Y165141D01*
X125014Y165030D01*
Y164974D01*
Y164947D01*
X125000Y164586D01*
X124958Y164239D01*
X124903Y163920D01*
X124834Y163615D01*
X124736Y163338D01*
X124639Y163074D01*
X124529Y162839D01*
X124417Y162631D01*
X124320Y162437D01*
X124209Y162270D01*
X124112Y162131D01*
X124015Y162007D01*
X123946Y161923D01*
X123890Y161854D01*
X123849Y161812D01*
X123835Y161798D01*
X123599Y161604D01*
X123350Y161424D01*
X123086Y161271D01*
X122823Y161147D01*
X122559Y161036D01*
X122282Y160939D01*
X122018Y160869D01*
X121769Y160800D01*
X121519Y160758D01*
X121297Y160717D01*
X121103Y160703D01*
X120923Y160675D01*
X120784D01*
X120673Y160661D01*
X120590D01*
X120257Y160675D01*
X119924Y160689D01*
X119619Y160731D01*
X119328Y160772D01*
X119064Y160828D01*
X118801Y160883D01*
X118565Y160953D01*
X118357Y161022D01*
X118163Y161077D01*
X117997Y161147D01*
X117844Y161202D01*
X117719Y161258D01*
X117622Y161299D01*
X117553Y161341D01*
X117511Y161355D01*
X117497Y161369D01*
Y165640D01*
X121061D01*
Y164170D01*
X119328D01*
Y162409D01*
X119508Y162339D01*
X119702Y162284D01*
X119896Y162242D01*
X120077Y162215D01*
X120243Y162201D01*
X120368Y162187D01*
X120493D01*
X120715Y162201D01*
X120923Y162215D01*
X121297Y162298D01*
X121630Y162423D01*
X121769Y162492D01*
X121894Y162561D01*
X122004Y162631D01*
X122115Y162700D01*
X122199Y162769D01*
X122268Y162825D01*
X122323Y162866D01*
X122365Y162908D01*
X122379Y162922D01*
X122393Y162936D01*
X122518Y163088D01*
X122615Y163241D01*
X122712Y163407D01*
X122795Y163574D01*
X122920Y163934D01*
X123003Y164267D01*
X123031Y164420D01*
X123045Y164558D01*
X123058Y164697D01*
X123072Y164808D01*
X123086Y164905D01*
Y164974D01*
Y165016D01*
Y165030D01*
X123072Y165280D01*
X123058Y165501D01*
X123017Y165723D01*
X122961Y165931D01*
X122906Y166112D01*
X122850Y166292D01*
X122781Y166458D01*
X122698Y166597D01*
X122628Y166722D01*
X122559Y166847D01*
X122504Y166944D01*
X122448Y167013D01*
X122393Y167082D01*
X122351Y167124D01*
X122337Y167152D01*
X122323Y167166D01*
X122171Y167304D01*
X122018Y167443D01*
X121852Y167540D01*
X121685Y167637D01*
X121519Y167720D01*
X121339Y167790D01*
X121020Y167887D01*
X120881Y167915D01*
X120742Y167942D01*
X120618Y167956D01*
X120520Y167970D01*
X120437Y167984D01*
X120312D01*
X119799Y167956D01*
X119328Y167887D01*
X119106Y167845D01*
X118912Y167804D01*
X118718Y167748D01*
X118551Y167693D01*
X118399Y167637D01*
X118260Y167582D01*
X118149Y167540D01*
X118052Y167498D01*
X117969Y167457D01*
X117913Y167429D01*
X117886Y167415D01*
X117872Y167401D01*
Y169135D01*
X118274Y169260D01*
X118676Y169357D01*
X119078Y169426D01*
X119453Y169482D01*
X119633Y169496D01*
X119785Y169509D01*
X119924D01*
X120035Y169523D01*
X120271D01*
X120659Y169509D01*
D02*
G37*
G36*
X115791Y160800D02*
X114058D01*
Y165668D01*
Y166001D01*
X114072Y166278D01*
Y166514D01*
X114086Y166708D01*
X114099Y166847D01*
Y166958D01*
X114113Y167027D01*
Y167041D01*
X114086D01*
X114030Y166930D01*
X113961Y166819D01*
X113822Y166597D01*
X113767Y166500D01*
X113711Y166417D01*
X113683Y166361D01*
X113670Y166347D01*
X110036Y160800D01*
X108164D01*
Y169371D01*
X109897D01*
Y164489D01*
Y164184D01*
X109883Y163934D01*
Y163726D01*
X109870Y163560D01*
X109856Y163435D01*
Y163352D01*
X109842Y163310D01*
Y163296D01*
X109870D01*
X109911Y163366D01*
X109967Y163463D01*
X110036Y163574D01*
X110119Y163685D01*
X110189Y163796D01*
X110244Y163893D01*
X110286Y163948D01*
X110300Y163976D01*
X113794Y169371D01*
X115791D01*
Y160800D01*
D02*
G37*
G36*
X122060Y185800D02*
X119993D01*
X117012Y194371D01*
X118926D01*
X120784Y188324D01*
X120867Y187991D01*
X120895Y187852D01*
X120923Y187728D01*
X120937Y187617D01*
X120950Y187534D01*
X120964Y187478D01*
Y187464D01*
X121006D01*
X121047Y187756D01*
X121075Y187908D01*
X121103Y188033D01*
X121131Y188144D01*
X121145Y188227D01*
X121172Y188296D01*
Y188310D01*
X123031Y194371D01*
X125000D01*
X122060Y185800D01*
D02*
G37*
G36*
X106167Y160800D02*
X103213D01*
X102838Y160814D01*
X102492Y160856D01*
X102159Y160911D01*
X101840Y160980D01*
X101549Y161077D01*
X101285Y161175D01*
X101035Y161285D01*
X100800Y161396D01*
X100605Y161507D01*
X100425Y161618D01*
X100273Y161715D01*
X100148Y161812D01*
X100037Y161882D01*
X99967Y161937D01*
X99926Y161979D01*
X99912Y161993D01*
X99690Y162229D01*
X99496Y162478D01*
X99316Y162742D01*
X99177Y163005D01*
X99052Y163269D01*
X98941Y163532D01*
X98858Y163796D01*
X98789Y164045D01*
X98747Y164281D01*
X98706Y164503D01*
X98678Y164697D01*
X98650Y164863D01*
Y165002D01*
X98636Y165113D01*
Y165169D01*
Y165196D01*
X98650Y165571D01*
X98692Y165931D01*
X98747Y166264D01*
X98830Y166569D01*
X98941Y166861D01*
X99052Y167138D01*
X99191Y167388D01*
X99344Y167609D01*
X99510Y167817D01*
X99690Y168012D01*
X99884Y168192D01*
X100078Y168358D01*
X100287Y168497D01*
X100494Y168622D01*
X100911Y168844D01*
X101341Y169024D01*
X101757Y169149D01*
X102145Y169246D01*
X102492Y169301D01*
X102644Y169329D01*
X102783Y169343D01*
X102894Y169357D01*
X103005D01*
X103088Y169371D01*
X106167D01*
Y160800D01*
D02*
G37*
G36*
X121951Y119109D02*
X122201Y119095D01*
X122672Y119012D01*
X122894Y118957D01*
X123102Y118888D01*
X123296Y118818D01*
X123463Y118763D01*
X123629Y118693D01*
X123768Y118624D01*
X123893Y118555D01*
X124004Y118499D01*
X124087Y118457D01*
X124142Y118416D01*
X124184Y118402D01*
X124198Y118388D01*
Y116793D01*
X124004Y116946D01*
X123809Y117085D01*
X123615Y117209D01*
X123435Y117306D01*
X123241Y117390D01*
X123075Y117459D01*
X122742Y117570D01*
X122603Y117612D01*
X122464Y117639D01*
X122353Y117653D01*
X122256Y117667D01*
X122173Y117681D01*
X122062D01*
X121826Y117667D01*
X121632Y117625D01*
X121452Y117570D01*
X121299Y117487D01*
X121174Y117403D01*
X121064Y117293D01*
X120980Y117182D01*
X120911Y117071D01*
X120856Y116960D01*
X120814Y116849D01*
X120786Y116738D01*
X120758Y116655D01*
Y116571D01*
X120745Y116516D01*
Y116474D01*
Y116461D01*
X120758Y116266D01*
X120800Y116072D01*
X120842Y115892D01*
X120897Y115725D01*
X120967Y115601D01*
X121008Y115490D01*
X121050Y115434D01*
X121064Y115407D01*
X121202Y115212D01*
X121355Y115004D01*
X121535Y114796D01*
X121715Y114602D01*
X121882Y114436D01*
X122021Y114297D01*
X122076Y114242D01*
X122118Y114200D01*
X122131Y114186D01*
X122145Y114172D01*
X124614Y111801D01*
Y110400D01*
X119011D01*
Y111884D01*
X122561D01*
Y111912D01*
X120772Y113534D01*
X120453Y113839D01*
X120162Y114144D01*
X119926Y114436D01*
X119718Y114727D01*
X119538Y114990D01*
X119385Y115254D01*
X119261Y115504D01*
X119164Y115725D01*
X119094Y115934D01*
X119039Y116128D01*
X118997Y116280D01*
X118969Y116419D01*
X118956Y116530D01*
X118942Y116613D01*
Y116669D01*
Y116682D01*
X118956Y116890D01*
X118969Y117085D01*
X119053Y117445D01*
X119178Y117750D01*
X119316Y118014D01*
X119455Y118208D01*
X119510Y118291D01*
X119580Y118361D01*
X119621Y118402D01*
X119663Y118444D01*
X119677Y118457D01*
X119691Y118471D01*
X119829Y118582D01*
X119982Y118693D01*
X120315Y118846D01*
X120647Y118971D01*
X120967Y119040D01*
X121244Y119095D01*
X121369Y119109D01*
X121480D01*
X121563Y119123D01*
X121688D01*
X121951Y119109D01*
D02*
G37*
G36*
X117597Y135800D02*
X114393D01*
X114129Y135814D01*
X113880Y135828D01*
X113644Y135869D01*
X113422Y135911D01*
X113228Y135953D01*
X113034Y136022D01*
X112867Y136077D01*
X112715Y136147D01*
X112576Y136202D01*
X112451Y136271D01*
X112354Y136327D01*
X112271Y136369D01*
X112202Y136424D01*
X112160Y136452D01*
X112132Y136466D01*
X112118Y136480D01*
X111966Y136618D01*
X111841Y136757D01*
X111730Y136910D01*
X111633Y137062D01*
X111550Y137215D01*
X111494Y137367D01*
X111383Y137672D01*
X111328Y137936D01*
X111314Y138047D01*
X111300Y138144D01*
X111286Y138227D01*
Y138282D01*
Y138324D01*
Y138338D01*
X111314Y138643D01*
X111370Y138906D01*
X111467Y139142D01*
X111564Y139350D01*
X111661Y139503D01*
X111758Y139628D01*
X111813Y139697D01*
X111841Y139725D01*
X112063Y139919D01*
X112299Y140058D01*
X112535Y140182D01*
X112770Y140266D01*
X112978Y140321D01*
X113131Y140363D01*
X113200Y140377D01*
X113242Y140390D01*
X113283D01*
Y140418D01*
X113034Y140501D01*
X112798Y140612D01*
X112604Y140737D01*
X112423Y140848D01*
X112285Y140959D01*
X112188Y141056D01*
X112132Y141112D01*
X112105Y141139D01*
X111952Y141347D01*
X111827Y141555D01*
X111744Y141763D01*
X111688Y141958D01*
X111661Y142124D01*
X111633Y142249D01*
Y142304D01*
Y142346D01*
Y142360D01*
Y142374D01*
X111647Y142540D01*
X111661Y142706D01*
X111758Y142998D01*
X111869Y143247D01*
X112008Y143469D01*
X112160Y143622D01*
X112271Y143747D01*
X112368Y143816D01*
X112382Y143844D01*
X112396D01*
X112548Y143941D01*
X112701Y144024D01*
X113048Y144149D01*
X113408Y144246D01*
X113755Y144301D01*
X113907Y144329D01*
X114060Y144343D01*
X114199Y144357D01*
X114310D01*
X114407Y144371D01*
X117597D01*
Y135800D01*
D02*
G37*
G36*
X124614Y143760D02*
Y142290D01*
X122769Y142706D01*
Y137215D01*
X124558D01*
Y135800D01*
X119205D01*
Y137215D01*
X120980D01*
Y144523D01*
X124614Y143760D01*
D02*
G37*
G36*
X106985Y33800D02*
X104031D01*
X103657Y33814D01*
X103310Y33856D01*
X102977Y33911D01*
X102658Y33980D01*
X102367Y34077D01*
X102103Y34174D01*
X101854Y34285D01*
X101618Y34396D01*
X101424Y34507D01*
X101243Y34618D01*
X101091Y34715D01*
X100966Y34812D01*
X100855Y34882D01*
X100786Y34937D01*
X100744Y34979D01*
X100730Y34993D01*
X100508Y35229D01*
X100314Y35478D01*
X100134Y35742D01*
X99995Y36005D01*
X99871Y36269D01*
X99760Y36532D01*
X99676Y36796D01*
X99607Y37045D01*
X99565Y37281D01*
X99524Y37503D01*
X99496Y37697D01*
X99468Y37863D01*
Y38002D01*
X99454Y38113D01*
Y38169D01*
Y38196D01*
X99468Y38571D01*
X99510Y38931D01*
X99565Y39264D01*
X99649Y39569D01*
X99760Y39860D01*
X99871Y40138D01*
X100009Y40388D01*
X100162Y40609D01*
X100328Y40817D01*
X100508Y41012D01*
X100703Y41192D01*
X100897Y41358D01*
X101105Y41497D01*
X101313Y41622D01*
X101729Y41844D01*
X102159Y42024D01*
X102575Y42149D01*
X102963Y42246D01*
X103310Y42301D01*
X103462Y42329D01*
X103601Y42343D01*
X103712Y42357D01*
X103823D01*
X103906Y42371D01*
X106985D01*
Y33800D01*
D02*
G37*
G36*
X76348Y87029D02*
Y87429D01*
X76371Y87761D01*
X76393Y88028D01*
X76415Y88228D01*
Y88383D01*
X76437Y88494D01*
X76459Y88539D01*
Y88561D01*
X76592Y88783D01*
X76748Y88960D01*
X76925Y89071D01*
X77125Y89160D01*
X77303Y89205D01*
X77458Y89249D01*
X83652D01*
X83874Y89227D01*
X84074Y89205D01*
X84229Y89138D01*
X84384Y89049D01*
X84607Y88849D01*
X84762Y88627D01*
X84851Y88383D01*
X84895Y88183D01*
X84917Y88095D01*
Y88028D01*
Y88006D01*
Y87984D01*
Y81590D01*
X69200D01*
Y83943D01*
X82897D01*
Y86918D01*
X77924D01*
Y84587D01*
X76504D01*
X69200Y87206D01*
Y89649D01*
X76348Y87029D01*
D02*
G37*
G36*
X71287Y93422D02*
X76215D01*
Y96974D01*
X78257D01*
Y93422D01*
X82830D01*
Y97529D01*
X84917D01*
Y91069D01*
X69200D01*
Y97596D01*
X71287D01*
Y93422D01*
D02*
G37*
G36*
Y101547D02*
X76215D01*
Y105099D01*
X78257D01*
Y101547D01*
X82830D01*
Y105654D01*
X84917D01*
Y99194D01*
X69200D01*
Y105721D01*
X71287D01*
Y101547D01*
D02*
G37*
G36*
X84917Y72843D02*
X82830D01*
Y75441D01*
X69200D01*
Y77772D01*
X82830D01*
Y80369D01*
X84917D01*
Y72843D01*
D02*
G37*
G36*
X75549Y57681D02*
X75816Y57614D01*
X76038Y57526D01*
X76237Y57437D01*
X76371Y57326D01*
X76481Y57237D01*
X76548Y57171D01*
X76570Y57148D01*
X76592Y57126D01*
X76637Y57082D01*
X76748Y56926D01*
X76859Y56726D01*
X77014Y56482D01*
X77147Y56260D01*
X77281Y56083D01*
X77369Y55927D01*
X77392Y55905D01*
Y55883D01*
X77525Y56083D01*
X77636Y56260D01*
X77747Y56416D01*
X77813Y56571D01*
X77969Y56771D01*
X78058Y56926D01*
X78124Y57015D01*
X78146Y57082D01*
X78169Y57104D01*
X78346Y57281D01*
X78546Y57393D01*
X78768Y57481D01*
X78968Y57548D01*
X79145Y57592D01*
X79301Y57614D01*
X83652D01*
X83874Y57592D01*
X84074Y57570D01*
X84229Y57503D01*
X84384Y57437D01*
X84607Y57237D01*
X84762Y57015D01*
X84851Y56793D01*
X84895Y56593D01*
X84917Y56460D01*
Y56438D01*
Y56416D01*
Y50000D01*
X69200D01*
Y56438D01*
X69222Y56660D01*
X69244Y56860D01*
X69311Y57015D01*
X69400Y57171D01*
X69600Y57393D01*
X69822Y57548D01*
X70044Y57637D01*
X70243Y57681D01*
X70399Y57703D01*
X75261D01*
X75549Y57681D01*
D02*
G37*
G36*
X84917Y59590D02*
X69200D01*
Y61943D01*
X84917D01*
Y59590D01*
D02*
G37*
G36*
X83874Y71645D02*
X84074Y71600D01*
X84229Y71534D01*
X84384Y71467D01*
X84607Y71267D01*
X84762Y71023D01*
X84851Y70801D01*
X84895Y70601D01*
X84917Y70446D01*
Y70424D01*
Y70401D01*
Y65162D01*
X84895Y64940D01*
X84851Y64741D01*
X84784Y64585D01*
X84718Y64430D01*
X84607Y64319D01*
X84518Y64208D01*
X84274Y64052D01*
X84052Y63963D01*
X83852Y63919D01*
X83696Y63897D01*
X70443D01*
X70221Y63919D01*
X70044Y63941D01*
X69866Y64008D01*
X69733Y64097D01*
X69511Y64296D01*
X69355Y64518D01*
X69267Y64741D01*
X69222Y64940D01*
X69200Y65096D01*
Y65118D01*
Y65140D01*
Y70401D01*
X69222Y70623D01*
X69244Y70823D01*
X69311Y70979D01*
X69400Y71134D01*
X69600Y71356D01*
X69822Y71511D01*
X70044Y71600D01*
X70243Y71645D01*
X70399Y71667D01*
X77636D01*
Y67582D01*
X75638D01*
Y69314D01*
X71220D01*
Y66250D01*
X82897D01*
Y69314D01*
X80122D01*
Y71667D01*
X83652D01*
X83874Y71645D01*
D02*
G37*
G36*
X106167Y8600D02*
X103213D01*
X102838Y8614D01*
X102492Y8655D01*
X102159Y8711D01*
X101840Y8780D01*
X101549Y8877D01*
X101285Y8974D01*
X101035Y9085D01*
X100800Y9196D01*
X100605Y9307D01*
X100425Y9418D01*
X100273Y9515D01*
X100148Y9612D01*
X100037Y9682D01*
X99967Y9737D01*
X99926Y9779D01*
X99912Y9793D01*
X99690Y10029D01*
X99496Y10278D01*
X99316Y10542D01*
X99177Y10805D01*
X99052Y11069D01*
X98941Y11332D01*
X98858Y11596D01*
X98789Y11845D01*
X98747Y12081D01*
X98706Y12303D01*
X98678Y12497D01*
X98650Y12663D01*
Y12802D01*
X98636Y12913D01*
Y12969D01*
Y12996D01*
X98650Y13371D01*
X98692Y13731D01*
X98747Y14064D01*
X98830Y14369D01*
X98941Y14661D01*
X99052Y14938D01*
X99191Y15187D01*
X99344Y15409D01*
X99510Y15617D01*
X99690Y15812D01*
X99884Y15992D01*
X100078Y16158D01*
X100287Y16297D01*
X100494Y16422D01*
X100911Y16644D01*
X101341Y16824D01*
X101757Y16949D01*
X102145Y17046D01*
X102492Y17101D01*
X102644Y17129D01*
X102783Y17143D01*
X102894Y17157D01*
X103005D01*
X103088Y17171D01*
X106167D01*
Y8600D01*
D02*
G37*
G36*
X120659Y17309D02*
X121034Y17268D01*
X121380Y17212D01*
X121713Y17129D01*
X122018Y17032D01*
X122296Y16921D01*
X122559Y16810D01*
X122795Y16685D01*
X123003Y16560D01*
X123183Y16450D01*
X123336Y16339D01*
X123475Y16242D01*
X123572Y16172D01*
X123655Y16103D01*
X123696Y16061D01*
X123710Y16047D01*
X123946Y15798D01*
X124140Y15534D01*
X124320Y15271D01*
X124459Y14993D01*
X124584Y14716D01*
X124695Y14439D01*
X124778Y14175D01*
X124847Y13925D01*
X124903Y13676D01*
X124944Y13454D01*
X124972Y13260D01*
X124986Y13080D01*
X125000Y12941D01*
X125014Y12830D01*
Y12774D01*
Y12747D01*
X125000Y12386D01*
X124958Y12039D01*
X124903Y11720D01*
X124834Y11415D01*
X124736Y11138D01*
X124639Y10874D01*
X124529Y10639D01*
X124417Y10431D01*
X124320Y10237D01*
X124209Y10070D01*
X124112Y9931D01*
X124015Y9807D01*
X123946Y9723D01*
X123890Y9654D01*
X123849Y9612D01*
X123835Y9599D01*
X123599Y9404D01*
X123350Y9224D01*
X123086Y9071D01*
X122823Y8947D01*
X122559Y8836D01*
X122282Y8739D01*
X122018Y8669D01*
X121769Y8600D01*
X121519Y8558D01*
X121297Y8517D01*
X121103Y8503D01*
X120923Y8475D01*
X120784D01*
X120673Y8461D01*
X120590D01*
X120257Y8475D01*
X119924Y8489D01*
X119619Y8531D01*
X119328Y8572D01*
X119064Y8628D01*
X118801Y8683D01*
X118565Y8753D01*
X118357Y8822D01*
X118163Y8877D01*
X117997Y8947D01*
X117844Y9002D01*
X117719Y9058D01*
X117622Y9099D01*
X117553Y9141D01*
X117511Y9155D01*
X117497Y9169D01*
Y13440D01*
X121061D01*
Y11970D01*
X119328D01*
Y10209D01*
X119508Y10139D01*
X119702Y10084D01*
X119896Y10042D01*
X120077Y10015D01*
X120243Y10001D01*
X120368Y9987D01*
X120493D01*
X120715Y10001D01*
X120923Y10015D01*
X121297Y10098D01*
X121630Y10223D01*
X121769Y10292D01*
X121894Y10361D01*
X122004Y10431D01*
X122115Y10500D01*
X122199Y10569D01*
X122268Y10625D01*
X122323Y10666D01*
X122365Y10708D01*
X122379Y10722D01*
X122393Y10736D01*
X122518Y10888D01*
X122615Y11041D01*
X122712Y11207D01*
X122795Y11374D01*
X122920Y11734D01*
X123003Y12067D01*
X123031Y12220D01*
X123045Y12358D01*
X123058Y12497D01*
X123072Y12608D01*
X123086Y12705D01*
Y12774D01*
Y12816D01*
Y12830D01*
X123072Y13080D01*
X123058Y13301D01*
X123017Y13523D01*
X122961Y13731D01*
X122906Y13912D01*
X122850Y14092D01*
X122781Y14258D01*
X122698Y14397D01*
X122628Y14522D01*
X122559Y14647D01*
X122504Y14744D01*
X122448Y14813D01*
X122393Y14882D01*
X122351Y14924D01*
X122337Y14952D01*
X122323Y14966D01*
X122171Y15104D01*
X122018Y15243D01*
X121852Y15340D01*
X121685Y15437D01*
X121519Y15520D01*
X121339Y15590D01*
X121020Y15687D01*
X120881Y15714D01*
X120742Y15742D01*
X120618Y15756D01*
X120520Y15770D01*
X120437Y15784D01*
X120312D01*
X119799Y15756D01*
X119328Y15687D01*
X119106Y15645D01*
X118912Y15604D01*
X118718Y15548D01*
X118551Y15493D01*
X118399Y15437D01*
X118260Y15382D01*
X118149Y15340D01*
X118052Y15298D01*
X117969Y15257D01*
X117913Y15229D01*
X117886Y15215D01*
X117872Y15201D01*
Y16935D01*
X118274Y17060D01*
X118676Y17157D01*
X119078Y17226D01*
X119453Y17282D01*
X119633Y17296D01*
X119785Y17309D01*
X119924D01*
X120035Y17323D01*
X120271D01*
X120659Y17309D01*
D02*
G37*
G36*
X115791Y8600D02*
X114058D01*
Y13468D01*
Y13801D01*
X114072Y14078D01*
Y14314D01*
X114086Y14508D01*
X114099Y14647D01*
Y14758D01*
X114113Y14827D01*
Y14841D01*
X114086D01*
X114030Y14730D01*
X113961Y14619D01*
X113822Y14397D01*
X113767Y14300D01*
X113711Y14217D01*
X113683Y14161D01*
X113670Y14147D01*
X110036Y8600D01*
X108164D01*
Y17171D01*
X109897D01*
Y12289D01*
Y11984D01*
X109883Y11734D01*
Y11526D01*
X109870Y11360D01*
X109856Y11235D01*
Y11152D01*
X109842Y11110D01*
Y11096D01*
X109870D01*
X109911Y11166D01*
X109967Y11263D01*
X110036Y11374D01*
X110119Y11485D01*
X110189Y11596D01*
X110244Y11693D01*
X110286Y11748D01*
X110300Y11776D01*
X113794Y17171D01*
X115791D01*
Y8600D01*
D02*
G37*
G36*
X84917Y138599D02*
X78435D01*
Y135424D01*
X84917D01*
Y133071D01*
X69200D01*
Y135424D01*
X76237D01*
Y138599D01*
X69200D01*
Y140974D01*
X84917D01*
Y138599D01*
D02*
G37*
G36*
Y106609D02*
X82830D01*
Y109206D01*
X69200D01*
Y111537D01*
X82830D01*
Y114135D01*
X84917D01*
Y106609D01*
D02*
G37*
G36*
X71287Y117709D02*
X76215D01*
Y121261D01*
X78257D01*
Y117709D01*
X82830D01*
Y121816D01*
X84917D01*
Y115356D01*
X69200D01*
Y121882D01*
X71287D01*
Y117709D01*
D02*
G37*
G36*
X83874Y131184D02*
X84074Y131139D01*
X84229Y131073D01*
X84384Y131006D01*
X84607Y130807D01*
X84762Y130562D01*
X84851Y130340D01*
X84895Y130141D01*
X84917Y129985D01*
Y129963D01*
Y129941D01*
Y124724D01*
X84895Y124502D01*
X84851Y124324D01*
X84784Y124147D01*
X84718Y124014D01*
X84518Y123792D01*
X84274Y123636D01*
X84052Y123547D01*
X83852Y123503D01*
X83696Y123481D01*
X70443D01*
X70221Y123503D01*
X70044Y123525D01*
X69866Y123592D01*
X69733Y123680D01*
X69511Y123880D01*
X69355Y124102D01*
X69267Y124324D01*
X69222Y124524D01*
X69200Y124679D01*
Y124702D01*
Y124724D01*
Y129941D01*
X69222Y130163D01*
X69244Y130363D01*
X69311Y130518D01*
X69400Y130673D01*
X69600Y130895D01*
X69822Y131051D01*
X70044Y131139D01*
X70243Y131184D01*
X70399Y131206D01*
X74506D01*
Y128875D01*
X71220D01*
Y125834D01*
X82897D01*
Y128875D01*
X79789D01*
Y131206D01*
X83652D01*
X83874Y131184D01*
D02*
G37*
G36*
X51400Y135800D02*
X49750D01*
Y140640D01*
Y141042D01*
X49763Y141444D01*
X49777Y141805D01*
Y142138D01*
X49791Y142290D01*
Y142415D01*
X49805Y142540D01*
Y142637D01*
X49819Y142706D01*
Y142776D01*
Y142803D01*
Y142817D01*
X49777D01*
X49736Y142651D01*
X49708Y142498D01*
X49680Y142360D01*
X49653Y142235D01*
X49625Y142124D01*
X49597Y142027D01*
X49569Y141874D01*
X49542Y141763D01*
X49514Y141694D01*
X49500Y141666D01*
Y141652D01*
X47350Y135800D01*
X45894D01*
X43786Y141708D01*
X43745Y141833D01*
X43703Y141999D01*
X43661Y142179D01*
X43620Y142374D01*
X43578Y142540D01*
X43551Y142679D01*
X43537Y142734D01*
X43523Y142776D01*
Y142803D01*
Y142817D01*
X43467D01*
X43495Y142429D01*
X43509Y142069D01*
X43537Y141763D01*
Y141500D01*
X43551Y141292D01*
Y141209D01*
Y141125D01*
Y141070D01*
Y141028D01*
Y141014D01*
Y141001D01*
Y135800D01*
X41734D01*
Y144371D01*
X44327D01*
X46185Y139198D01*
X46255Y139004D01*
X46310Y138796D01*
X46380Y138588D01*
X46421Y138393D01*
X46463Y138227D01*
X46505Y138102D01*
X46518Y138047D01*
Y138005D01*
X46532Y137991D01*
Y137977D01*
X46574D01*
X46615Y138199D01*
X46657Y138407D01*
X46712Y138615D01*
X46768Y138796D01*
X46810Y138948D01*
X46851Y139073D01*
X46879Y139156D01*
X46893Y139184D01*
X48737Y144371D01*
X51400D01*
Y135800D01*
D02*
G37*
G36*
X37660Y66909D02*
X37910Y66895D01*
X38159Y66868D01*
X38395Y66826D01*
X38603Y66771D01*
X38797Y66715D01*
X38991Y66660D01*
X39144Y66590D01*
X39297Y66535D01*
X39421Y66466D01*
X39532Y66410D01*
X39629Y66368D01*
X39699Y66313D01*
X39754Y66285D01*
X39782Y66271D01*
X39796Y66258D01*
X39962Y66133D01*
X40101Y65980D01*
X40226Y65841D01*
X40323Y65689D01*
X40420Y65536D01*
X40489Y65384D01*
X40600Y65079D01*
X40656Y64815D01*
X40683Y64690D01*
X40697Y64593D01*
X40711Y64510D01*
Y64455D01*
Y64413D01*
Y64399D01*
X40683Y64108D01*
X40628Y63817D01*
X40531Y63567D01*
X40392Y63317D01*
X40240Y63096D01*
X40073Y62901D01*
X39893Y62707D01*
X39699Y62541D01*
X39518Y62402D01*
X39338Y62277D01*
X39172Y62166D01*
X39019Y62069D01*
X38880Y62000D01*
X38783Y61958D01*
X38728Y61931D01*
X38700Y61917D01*
X38464Y61820D01*
X38256Y61736D01*
X38076Y61639D01*
X37910Y61556D01*
X37757Y61487D01*
X37632Y61417D01*
X37521Y61348D01*
X37424Y61293D01*
X37341Y61251D01*
X37286Y61196D01*
X37188Y61126D01*
X37133Y61085D01*
X37119Y61071D01*
X37022Y60960D01*
X36939Y60835D01*
X36883Y60724D01*
X36856Y60627D01*
X36828Y60544D01*
X36814Y60474D01*
Y60433D01*
Y60419D01*
X36828Y60280D01*
X36869Y60142D01*
X36939Y60031D01*
X37008Y59934D01*
X37078Y59864D01*
X37147Y59795D01*
X37188Y59767D01*
X37202Y59753D01*
X37355Y59670D01*
X37535Y59601D01*
X37715Y59559D01*
X37910Y59517D01*
X38062Y59504D01*
X38201Y59490D01*
X38326D01*
X38575Y59504D01*
X38811Y59531D01*
X39033Y59573D01*
X39241Y59629D01*
X39643Y59767D01*
X39824Y59837D01*
X39990Y59920D01*
X40142Y60003D01*
X40281Y60072D01*
X40392Y60156D01*
X40489Y60211D01*
X40572Y60266D01*
X40628Y60308D01*
X40656Y60336D01*
X40669Y60350D01*
Y58519D01*
X40295Y58366D01*
X39893Y58256D01*
X39491Y58172D01*
X39102Y58117D01*
X38936Y58103D01*
X38770Y58089D01*
X38631Y58075D01*
X38506D01*
X38395Y58061D01*
X38256D01*
X37965Y58075D01*
X37688Y58089D01*
X37424Y58117D01*
X37188Y58158D01*
X36967Y58214D01*
X36759Y58269D01*
X36578Y58325D01*
X36412Y58380D01*
X36259Y58436D01*
X36135Y58491D01*
X36023Y58547D01*
X35940Y58602D01*
X35871Y58644D01*
X35815Y58671D01*
X35788Y58699D01*
X35774D01*
X35621Y58824D01*
X35483Y58963D01*
X35372Y59115D01*
X35275Y59268D01*
X35178Y59420D01*
X35108Y59573D01*
X35011Y59878D01*
X34942Y60142D01*
X34928Y60266D01*
X34914Y60363D01*
X34900Y60461D01*
Y60516D01*
Y60558D01*
Y60571D01*
X34914Y60877D01*
X34970Y61154D01*
X35053Y61404D01*
X35136Y61612D01*
X35233Y61792D01*
X35302Y61917D01*
X35358Y62000D01*
X35386Y62028D01*
X35483Y62139D01*
X35594Y62250D01*
X35857Y62471D01*
X36148Y62666D01*
X36440Y62832D01*
X36703Y62971D01*
X36828Y63040D01*
X36925Y63082D01*
X37008Y63123D01*
X37078Y63151D01*
X37119Y63179D01*
X37133D01*
X37327Y63262D01*
X37508Y63345D01*
X37660Y63428D01*
X37813Y63498D01*
X37937Y63567D01*
X38048Y63636D01*
X38145Y63692D01*
X38229Y63747D01*
X38353Y63831D01*
X38451Y63886D01*
X38492Y63928D01*
X38506Y63941D01*
X38603Y64053D01*
X38672Y64150D01*
X38714Y64261D01*
X38742Y64358D01*
X38770Y64427D01*
X38783Y64496D01*
Y64538D01*
Y64552D01*
X38770Y64704D01*
X38714Y64829D01*
X38658Y64940D01*
X38575Y65037D01*
X38506Y65120D01*
X38437Y65176D01*
X38395Y65204D01*
X38381Y65217D01*
X38215Y65301D01*
X38035Y65356D01*
X37854Y65412D01*
X37688Y65439D01*
X37535Y65453D01*
X37410Y65467D01*
X37078D01*
X36883Y65439D01*
X36495Y65370D01*
X36148Y65273D01*
X35843Y65176D01*
X35718Y65120D01*
X35608Y65065D01*
X35510Y65009D01*
X35427Y64968D01*
X35358Y64926D01*
X35316Y64898D01*
X35289Y64885D01*
X35275Y64871D01*
Y66590D01*
X35608Y66701D01*
X35954Y66785D01*
X36315Y66840D01*
X36648Y66882D01*
X36800Y66895D01*
X36939Y66909D01*
X37064D01*
X37175Y66923D01*
X37383D01*
X37660Y66909D01*
D02*
G37*
G36*
X34262Y65273D02*
X31821D01*
Y58200D01*
X29991D01*
Y65273D01*
X27536D01*
Y66771D01*
X34262D01*
Y65273D01*
D02*
G37*
G36*
X30756Y168709D02*
X31019Y168668D01*
X31269Y168612D01*
X31505Y168543D01*
X31713Y168446D01*
X31907Y168349D01*
X32087Y168238D01*
X32240Y168141D01*
X32392Y168030D01*
X32503Y167919D01*
X32614Y167822D01*
X32697Y167725D01*
X32767Y167655D01*
X32808Y167600D01*
X32836Y167558D01*
X32850Y167544D01*
X32989Y167309D01*
X33113Y167059D01*
X33224Y166796D01*
X33321Y166518D01*
X33405Y166241D01*
X33474Y165950D01*
X33571Y165409D01*
X33599Y165145D01*
X33627Y164909D01*
X33640Y164701D01*
X33654Y164507D01*
X33668Y164355D01*
Y164244D01*
Y164174D01*
Y164147D01*
X33654Y163758D01*
X33640Y163398D01*
X33599Y163051D01*
X33543Y162732D01*
X33474Y162441D01*
X33391Y162164D01*
X33294Y161900D01*
X33197Y161664D01*
X33086Y161456D01*
X32961Y161248D01*
X32836Y161068D01*
X32711Y160902D01*
X32573Y160763D01*
X32434Y160624D01*
X32295Y160499D01*
X32157Y160402D01*
X31879Y160222D01*
X31602Y160083D01*
X31352Y159986D01*
X31116Y159931D01*
X30922Y159889D01*
X30770Y159875D01*
X30714Y159861D01*
X30645D01*
X30368Y159875D01*
X30104Y159917D01*
X29868Y159972D01*
X29646Y160042D01*
X29438Y160139D01*
X29244Y160236D01*
X29078Y160333D01*
X28925Y160444D01*
X28786Y160555D01*
X28662Y160652D01*
X28565Y160763D01*
X28481Y160846D01*
X28412Y160915D01*
X28370Y160971D01*
X28343Y161012D01*
X28329Y161026D01*
X28190Y161262D01*
X28065Y161498D01*
X27954Y161761D01*
X27857Y162039D01*
X27788Y162316D01*
X27719Y162593D01*
X27622Y163120D01*
X27594Y163370D01*
X27566Y163606D01*
X27552Y163814D01*
X27538Y163994D01*
X27524Y164133D01*
Y164244D01*
Y164313D01*
Y164341D01*
X27538Y164743D01*
X27552Y165117D01*
X27594Y165464D01*
X27649Y165783D01*
X27719Y166088D01*
X27802Y166380D01*
X27885Y166629D01*
X27982Y166879D01*
X28093Y167101D01*
X28204Y167295D01*
X28329Y167489D01*
X28454Y167655D01*
X28592Y167808D01*
X28731Y167947D01*
X28856Y168071D01*
X28995Y168182D01*
X29272Y168363D01*
X29549Y168487D01*
X29799Y168584D01*
X30021Y168654D01*
X30201Y168696D01*
X30354Y168709D01*
X30409Y168723D01*
X30478D01*
X30756Y168709D01*
D02*
G37*
G36*
X47965Y40473D02*
X45524D01*
Y33400D01*
X43694D01*
Y40473D01*
X41239D01*
Y41971D01*
X47965D01*
Y40473D01*
D02*
G37*
G36*
X32941Y143760D02*
Y142290D01*
X31097Y142706D01*
Y137215D01*
X32886D01*
Y135800D01*
X27532D01*
Y137215D01*
X29308D01*
Y144523D01*
X32941Y143760D01*
D02*
G37*
G36*
X37115Y144509D02*
X37365Y144495D01*
X37615Y144468D01*
X37851Y144426D01*
X38059Y144371D01*
X38253Y144315D01*
X38447Y144260D01*
X38600Y144190D01*
X38752Y144135D01*
X38877Y144066D01*
X38988Y144010D01*
X39085Y143968D01*
X39154Y143913D01*
X39210Y143885D01*
X39237Y143871D01*
X39251Y143857D01*
X39418Y143733D01*
X39556Y143580D01*
X39681Y143441D01*
X39778Y143289D01*
X39875Y143136D01*
X39945Y142984D01*
X40056Y142679D01*
X40111Y142415D01*
X40139Y142290D01*
X40153Y142193D01*
X40167Y142110D01*
Y142055D01*
Y142013D01*
Y141999D01*
X40139Y141708D01*
X40083Y141417D01*
X39986Y141167D01*
X39848Y140917D01*
X39695Y140696D01*
X39529Y140501D01*
X39348Y140307D01*
X39154Y140141D01*
X38974Y140002D01*
X38794Y139877D01*
X38627Y139766D01*
X38475Y139669D01*
X38336Y139600D01*
X38239Y139558D01*
X38183Y139531D01*
X38156Y139517D01*
X37920Y139420D01*
X37712Y139336D01*
X37532Y139239D01*
X37365Y139156D01*
X37213Y139087D01*
X37088Y139017D01*
X36977Y138948D01*
X36880Y138893D01*
X36797Y138851D01*
X36741Y138796D01*
X36644Y138726D01*
X36588Y138685D01*
X36575Y138671D01*
X36478Y138560D01*
X36394Y138435D01*
X36339Y138324D01*
X36311Y138227D01*
X36283Y138144D01*
X36270Y138074D01*
Y138033D01*
Y138019D01*
X36283Y137880D01*
X36325Y137742D01*
X36394Y137631D01*
X36464Y137534D01*
X36533Y137464D01*
X36602Y137395D01*
X36644Y137367D01*
X36658Y137353D01*
X36810Y137270D01*
X36991Y137201D01*
X37171Y137159D01*
X37365Y137118D01*
X37518Y137104D01*
X37656Y137090D01*
X37781D01*
X38031Y137104D01*
X38267Y137131D01*
X38489Y137173D01*
X38696Y137228D01*
X39099Y137367D01*
X39279Y137437D01*
X39445Y137520D01*
X39598Y137603D01*
X39737Y137672D01*
X39848Y137755D01*
X39945Y137811D01*
X40028Y137866D01*
X40083Y137908D01*
X40111Y137936D01*
X40125Y137950D01*
Y136119D01*
X39750Y135966D01*
X39348Y135856D01*
X38946Y135772D01*
X38558Y135717D01*
X38391Y135703D01*
X38225Y135689D01*
X38086Y135675D01*
X37961D01*
X37851Y135661D01*
X37712D01*
X37421Y135675D01*
X37143Y135689D01*
X36880Y135717D01*
X36644Y135758D01*
X36422Y135814D01*
X36214Y135869D01*
X36034Y135925D01*
X35867Y135980D01*
X35715Y136036D01*
X35590Y136091D01*
X35479Y136147D01*
X35396Y136202D01*
X35326Y136244D01*
X35271Y136271D01*
X35243Y136299D01*
X35229D01*
X35077Y136424D01*
X34938Y136563D01*
X34827Y136715D01*
X34730Y136868D01*
X34633Y137020D01*
X34564Y137173D01*
X34467Y137478D01*
X34397Y137742D01*
X34383Y137866D01*
X34370Y137963D01*
X34356Y138061D01*
Y138116D01*
Y138158D01*
Y138172D01*
X34370Y138477D01*
X34425Y138754D01*
X34508Y139004D01*
X34592Y139212D01*
X34689Y139392D01*
X34758Y139517D01*
X34813Y139600D01*
X34841Y139628D01*
X34938Y139739D01*
X35049Y139850D01*
X35313Y140071D01*
X35604Y140266D01*
X35895Y140432D01*
X36159Y140571D01*
X36283Y140640D01*
X36381Y140682D01*
X36464Y140723D01*
X36533Y140751D01*
X36575Y140779D01*
X36588D01*
X36783Y140862D01*
X36963Y140945D01*
X37115Y141028D01*
X37268Y141098D01*
X37393Y141167D01*
X37504Y141236D01*
X37601Y141292D01*
X37684Y141347D01*
X37809Y141431D01*
X37906Y141486D01*
X37948Y141528D01*
X37961Y141542D01*
X38059Y141652D01*
X38128Y141750D01*
X38170Y141861D01*
X38197Y141958D01*
X38225Y142027D01*
X38239Y142096D01*
Y142138D01*
Y142152D01*
X38225Y142304D01*
X38170Y142429D01*
X38114Y142540D01*
X38031Y142637D01*
X37961Y142720D01*
X37892Y142776D01*
X37851Y142803D01*
X37837Y142817D01*
X37670Y142901D01*
X37490Y142956D01*
X37310Y143012D01*
X37143Y143039D01*
X36991Y143053D01*
X36866Y143067D01*
X36533D01*
X36339Y143039D01*
X35951Y142970D01*
X35604Y142873D01*
X35299Y142776D01*
X35174Y142720D01*
X35063Y142665D01*
X34966Y142609D01*
X34883Y142568D01*
X34813Y142526D01*
X34772Y142498D01*
X34744Y142485D01*
X34730Y142471D01*
Y144190D01*
X35063Y144301D01*
X35410Y144384D01*
X35770Y144440D01*
X36103Y144482D01*
X36256Y144495D01*
X36394Y144509D01*
X36519D01*
X36630Y144523D01*
X36838D01*
X37115Y144509D01*
D02*
G37*
G36*
X29928Y93509D02*
X30275Y93468D01*
X30608Y93398D01*
X30913Y93315D01*
X31204Y93218D01*
X31481Y93107D01*
X31731Y92996D01*
X31953Y92871D01*
X32147Y92747D01*
X32327Y92636D01*
X32480Y92525D01*
X32604Y92428D01*
X32715Y92344D01*
X32785Y92275D01*
X32826Y92233D01*
X32840Y92220D01*
X33062Y91970D01*
X33256Y91706D01*
X33437Y91429D01*
X33575Y91152D01*
X33700Y90874D01*
X33811Y90597D01*
X33894Y90333D01*
X33950Y90070D01*
X34005Y89834D01*
X34047Y89599D01*
X34075Y89404D01*
X34102Y89224D01*
Y89085D01*
X34116Y88988D01*
Y88919D01*
Y88891D01*
X34102Y88545D01*
X34061Y88212D01*
X34005Y87893D01*
X33936Y87601D01*
X33853Y87324D01*
X33756Y87074D01*
X33658Y86839D01*
X33548Y86631D01*
X33437Y86437D01*
X33340Y86284D01*
X33242Y86145D01*
X33159Y86020D01*
X33090Y85937D01*
X33021Y85868D01*
X32993Y85826D01*
X32979Y85812D01*
X32757Y85604D01*
X32521Y85438D01*
X32272Y85285D01*
X32022Y85147D01*
X31759Y85036D01*
X31509Y84939D01*
X31259Y84869D01*
X31010Y84800D01*
X30788Y84758D01*
X30580Y84717D01*
X30386Y84703D01*
X30219Y84675D01*
X30080D01*
X29983Y84661D01*
X29623D01*
X29359Y84675D01*
X29110Y84703D01*
X28874Y84731D01*
X28666Y84758D01*
X28458Y84800D01*
X28278Y84842D01*
X28111Y84883D01*
X27959Y84925D01*
X27834Y84966D01*
X27723Y85008D01*
X27626Y85036D01*
X27556Y85063D01*
X27501Y85091D01*
X27473Y85105D01*
X27459D01*
Y86783D01*
X27820Y86603D01*
X28180Y86464D01*
X28527Y86367D01*
X28846Y86298D01*
X28999Y86270D01*
X29124Y86256D01*
X29248Y86242D01*
X29346D01*
X29429Y86229D01*
X29540D01*
X29762Y86242D01*
X29969Y86256D01*
X30358Y86353D01*
X30691Y86464D01*
X30829Y86534D01*
X30968Y86617D01*
X31079Y86686D01*
X31190Y86756D01*
X31273Y86811D01*
X31342Y86866D01*
X31412Y86922D01*
X31453Y86964D01*
X31467Y86977D01*
X31481Y86991D01*
X31606Y87144D01*
X31717Y87296D01*
X31814Y87463D01*
X31883Y87643D01*
X32022Y87976D01*
X32105Y88309D01*
X32133Y88447D01*
X32147Y88586D01*
X32161Y88711D01*
X32175Y88822D01*
X32188Y88905D01*
Y88974D01*
Y89016D01*
Y89030D01*
X32175Y89266D01*
X32161Y89501D01*
X32078Y89904D01*
X32008Y90098D01*
X31953Y90264D01*
X31883Y90417D01*
X31814Y90569D01*
X31745Y90694D01*
X31675Y90805D01*
X31606Y90902D01*
X31551Y90985D01*
X31509Y91041D01*
X31467Y91082D01*
X31453Y91110D01*
X31440Y91124D01*
X31287Y91263D01*
X31135Y91388D01*
X30982Y91498D01*
X30815Y91595D01*
X30635Y91665D01*
X30469Y91734D01*
X30150Y91831D01*
X30011Y91859D01*
X29873Y91887D01*
X29748Y91901D01*
X29637Y91915D01*
X29553Y91928D01*
X29429D01*
X29027Y91901D01*
X28652Y91845D01*
X28319Y91776D01*
X28028Y91679D01*
X27903Y91637D01*
X27792Y91582D01*
X27695Y91540D01*
X27612Y91512D01*
X27543Y91471D01*
X27501Y91457D01*
X27473Y91429D01*
X27459D01*
Y93190D01*
X27792Y93301D01*
X28139Y93385D01*
X28500Y93440D01*
X28819Y93482D01*
X28971Y93496D01*
X29110Y93509D01*
X29234D01*
X29346Y93523D01*
X29553D01*
X29928Y93509D01*
D02*
G37*
G36*
X36916Y119109D02*
X37165Y119095D01*
X37415Y119068D01*
X37651Y119026D01*
X37859Y118971D01*
X38053Y118915D01*
X38247Y118860D01*
X38400Y118790D01*
X38552Y118735D01*
X38677Y118666D01*
X38788Y118610D01*
X38885Y118568D01*
X38954Y118513D01*
X39010Y118485D01*
X39037Y118471D01*
X39051Y118457D01*
X39218Y118333D01*
X39356Y118180D01*
X39481Y118041D01*
X39578Y117889D01*
X39675Y117736D01*
X39745Y117584D01*
X39856Y117279D01*
X39911Y117015D01*
X39939Y116890D01*
X39953Y116793D01*
X39967Y116710D01*
Y116655D01*
Y116613D01*
Y116599D01*
X39939Y116308D01*
X39883Y116017D01*
X39786Y115767D01*
X39648Y115517D01*
X39495Y115296D01*
X39329Y115101D01*
X39148Y114907D01*
X38954Y114741D01*
X38774Y114602D01*
X38594Y114477D01*
X38427Y114366D01*
X38275Y114269D01*
X38136Y114200D01*
X38039Y114158D01*
X37983Y114131D01*
X37956Y114117D01*
X37720Y114020D01*
X37512Y113936D01*
X37332Y113839D01*
X37165Y113756D01*
X37013Y113687D01*
X36888Y113617D01*
X36777Y113548D01*
X36680Y113493D01*
X36597Y113451D01*
X36541Y113396D01*
X36444Y113326D01*
X36388Y113285D01*
X36375Y113271D01*
X36278Y113160D01*
X36194Y113035D01*
X36139Y112924D01*
X36111Y112827D01*
X36083Y112744D01*
X36070Y112674D01*
Y112633D01*
Y112619D01*
X36083Y112480D01*
X36125Y112342D01*
X36194Y112231D01*
X36264Y112134D01*
X36333Y112064D01*
X36402Y111995D01*
X36444Y111967D01*
X36458Y111953D01*
X36610Y111870D01*
X36791Y111801D01*
X36971Y111759D01*
X37165Y111718D01*
X37318Y111704D01*
X37456Y111690D01*
X37581D01*
X37831Y111704D01*
X38067Y111731D01*
X38289Y111773D01*
X38496Y111828D01*
X38899Y111967D01*
X39079Y112037D01*
X39245Y112120D01*
X39398Y112203D01*
X39537Y112272D01*
X39648Y112355D01*
X39745Y112411D01*
X39828Y112466D01*
X39883Y112508D01*
X39911Y112536D01*
X39925Y112550D01*
Y110719D01*
X39550Y110566D01*
X39148Y110456D01*
X38746Y110372D01*
X38358Y110317D01*
X38191Y110303D01*
X38025Y110289D01*
X37886Y110275D01*
X37761D01*
X37651Y110261D01*
X37512D01*
X37221Y110275D01*
X36943Y110289D01*
X36680Y110317D01*
X36444Y110358D01*
X36222Y110414D01*
X36014Y110469D01*
X35834Y110525D01*
X35667Y110580D01*
X35515Y110636D01*
X35390Y110691D01*
X35279Y110747D01*
X35196Y110802D01*
X35127Y110844D01*
X35071Y110871D01*
X35043Y110899D01*
X35029D01*
X34877Y111024D01*
X34738Y111163D01*
X34627Y111315D01*
X34530Y111468D01*
X34433Y111620D01*
X34364Y111773D01*
X34267Y112078D01*
X34197Y112342D01*
X34183Y112466D01*
X34170Y112563D01*
X34156Y112661D01*
Y112716D01*
Y112758D01*
Y112772D01*
X34170Y113077D01*
X34225Y113354D01*
X34308Y113604D01*
X34392Y113812D01*
X34489Y113992D01*
X34558Y114117D01*
X34613Y114200D01*
X34641Y114228D01*
X34738Y114339D01*
X34849Y114450D01*
X35113Y114671D01*
X35404Y114866D01*
X35695Y115032D01*
X35959Y115171D01*
X36083Y115240D01*
X36181Y115282D01*
X36264Y115323D01*
X36333Y115351D01*
X36375Y115379D01*
X36388D01*
X36583Y115462D01*
X36763Y115545D01*
X36916Y115628D01*
X37068Y115698D01*
X37193Y115767D01*
X37304Y115836D01*
X37401Y115892D01*
X37484Y115947D01*
X37609Y116031D01*
X37706Y116086D01*
X37748Y116128D01*
X37761Y116142D01*
X37859Y116252D01*
X37928Y116350D01*
X37970Y116461D01*
X37997Y116558D01*
X38025Y116627D01*
X38039Y116696D01*
Y116738D01*
Y116752D01*
X38025Y116904D01*
X37970Y117029D01*
X37914Y117140D01*
X37831Y117237D01*
X37761Y117320D01*
X37692Y117376D01*
X37651Y117403D01*
X37637Y117417D01*
X37470Y117501D01*
X37290Y117556D01*
X37110Y117612D01*
X36943Y117639D01*
X36791Y117653D01*
X36666Y117667D01*
X36333D01*
X36139Y117639D01*
X35751Y117570D01*
X35404Y117473D01*
X35099Y117376D01*
X34974Y117320D01*
X34863Y117265D01*
X34766Y117209D01*
X34683Y117168D01*
X34613Y117126D01*
X34572Y117098D01*
X34544Y117085D01*
X34530Y117071D01*
Y118790D01*
X34863Y118901D01*
X35210Y118984D01*
X35570Y119040D01*
X35903Y119082D01*
X36056Y119095D01*
X36194Y119109D01*
X36319D01*
X36430Y119123D01*
X36638D01*
X36916Y119109D01*
D02*
G37*
G36*
X43200Y84800D02*
X41466D01*
Y89668D01*
Y90001D01*
X41480Y90278D01*
Y90514D01*
X41494Y90708D01*
X41508Y90847D01*
Y90958D01*
X41522Y91027D01*
Y91041D01*
X41494D01*
X41439Y90930D01*
X41369Y90819D01*
X41231Y90597D01*
X41175Y90500D01*
X41120Y90417D01*
X41092Y90361D01*
X41078Y90347D01*
X37445Y84800D01*
X35572D01*
Y93371D01*
X37306D01*
Y88489D01*
Y88184D01*
X37292Y87934D01*
Y87726D01*
X37278Y87560D01*
X37264Y87435D01*
Y87352D01*
X37250Y87310D01*
Y87296D01*
X37278D01*
X37320Y87366D01*
X37375Y87463D01*
X37445Y87574D01*
X37528Y87685D01*
X37597Y87796D01*
X37653Y87893D01*
X37694Y87948D01*
X37708Y87976D01*
X41203Y93371D01*
X43200D01*
Y84800D01*
D02*
G37*
G36*
X30397Y119109D02*
X30647Y119095D01*
X31119Y119012D01*
X31340Y118957D01*
X31549Y118888D01*
X31743Y118818D01*
X31909Y118763D01*
X32076Y118693D01*
X32214Y118624D01*
X32339Y118555D01*
X32450Y118499D01*
X32533Y118457D01*
X32589Y118416D01*
X32630Y118402D01*
X32644Y118388D01*
Y116793D01*
X32450Y116946D01*
X32256Y117085D01*
X32062Y117209D01*
X31881Y117306D01*
X31687Y117390D01*
X31521Y117459D01*
X31188Y117570D01*
X31049Y117612D01*
X30910Y117639D01*
X30800Y117653D01*
X30703Y117667D01*
X30619Y117681D01*
X30508D01*
X30273Y117667D01*
X30078Y117625D01*
X29898Y117570D01*
X29746Y117487D01*
X29621Y117403D01*
X29510Y117293D01*
X29427Y117182D01*
X29357Y117071D01*
X29302Y116960D01*
X29260Y116849D01*
X29232Y116738D01*
X29205Y116655D01*
Y116571D01*
X29191Y116516D01*
Y116474D01*
Y116461D01*
X29205Y116266D01*
X29246Y116072D01*
X29288Y115892D01*
X29343Y115725D01*
X29413Y115601D01*
X29454Y115490D01*
X29496Y115434D01*
X29510Y115407D01*
X29648Y115212D01*
X29801Y115004D01*
X29981Y114796D01*
X30162Y114602D01*
X30328Y114436D01*
X30467Y114297D01*
X30522Y114242D01*
X30564Y114200D01*
X30578Y114186D01*
X30592Y114172D01*
X33060Y111801D01*
Y110400D01*
X27457D01*
Y111884D01*
X31008D01*
Y111912D01*
X29219Y113534D01*
X28900Y113839D01*
X28608Y114144D01*
X28373Y114436D01*
X28165Y114727D01*
X27984Y114990D01*
X27832Y115254D01*
X27707Y115504D01*
X27610Y115725D01*
X27541Y115934D01*
X27485Y116128D01*
X27443Y116280D01*
X27416Y116419D01*
X27402Y116530D01*
X27388Y116613D01*
Y116669D01*
Y116682D01*
X27402Y116890D01*
X27416Y117085D01*
X27499Y117445D01*
X27624Y117750D01*
X27762Y118014D01*
X27901Y118208D01*
X27957Y118291D01*
X28026Y118361D01*
X28068Y118402D01*
X28109Y118444D01*
X28123Y118457D01*
X28137Y118471D01*
X28275Y118582D01*
X28428Y118693D01*
X28761Y118846D01*
X29094Y118971D01*
X29413Y119040D01*
X29690Y119095D01*
X29815Y119109D01*
X29926D01*
X30009Y119123D01*
X30134D01*
X30397Y119109D01*
D02*
G37*
G36*
X48200Y58200D02*
X46369D01*
Y61515D01*
X45815D01*
X45704Y61501D01*
X45607Y61487D01*
X45426Y61417D01*
X45357Y61376D01*
X45301Y61334D01*
X45274Y61320D01*
X45260Y61307D01*
X45149Y61210D01*
X45038Y61085D01*
X44913Y60946D01*
X44802Y60793D01*
X44719Y60655D01*
X44636Y60530D01*
X44580Y60447D01*
X44566Y60433D01*
Y60419D01*
X43221Y58200D01*
X41127D01*
X42736Y60738D01*
X42874Y60932D01*
X42999Y61112D01*
X43124Y61265D01*
X43249Y61404D01*
X43360Y61528D01*
X43471Y61639D01*
X43568Y61723D01*
X43665Y61806D01*
X43832Y61917D01*
X43942Y62000D01*
X44026Y62028D01*
X44040Y62042D01*
X44053D01*
Y62069D01*
X43734Y62180D01*
X43457Y62305D01*
X43207Y62458D01*
X43013Y62596D01*
X42847Y62735D01*
X42736Y62846D01*
X42667Y62915D01*
X42639Y62943D01*
X42472Y63193D01*
X42347Y63442D01*
X42250Y63692D01*
X42195Y63928D01*
X42153Y64136D01*
X42140Y64219D01*
Y64288D01*
X42126Y64358D01*
Y64399D01*
Y64427D01*
Y64441D01*
X42140Y64649D01*
X42153Y64857D01*
X42195Y65037D01*
X42250Y65204D01*
X42403Y65522D01*
X42597Y65786D01*
X42833Y66008D01*
X43096Y66202D01*
X43374Y66355D01*
X43651Y66479D01*
X43942Y66576D01*
X44220Y66646D01*
X44483Y66701D01*
X44705Y66729D01*
X44913Y66757D01*
X45052Y66771D01*
X48200D01*
Y58200D01*
D02*
G37*
G36*
X51200Y110400D02*
X49550D01*
Y115240D01*
Y115642D01*
X49563Y116044D01*
X49577Y116405D01*
Y116738D01*
X49591Y116890D01*
Y117015D01*
X49605Y117140D01*
Y117237D01*
X49619Y117306D01*
Y117376D01*
Y117403D01*
Y117417D01*
X49577D01*
X49536Y117251D01*
X49508Y117098D01*
X49480Y116960D01*
X49453Y116835D01*
X49425Y116724D01*
X49397Y116627D01*
X49369Y116474D01*
X49342Y116363D01*
X49314Y116294D01*
X49300Y116266D01*
Y116252D01*
X47150Y110400D01*
X45694D01*
X43586Y116308D01*
X43545Y116433D01*
X43503Y116599D01*
X43461Y116779D01*
X43420Y116974D01*
X43378Y117140D01*
X43351Y117279D01*
X43337Y117334D01*
X43323Y117376D01*
Y117403D01*
Y117417D01*
X43267D01*
X43295Y117029D01*
X43309Y116669D01*
X43337Y116363D01*
Y116100D01*
X43351Y115892D01*
Y115809D01*
Y115725D01*
Y115670D01*
Y115628D01*
Y115615D01*
Y115601D01*
Y110400D01*
X41534D01*
Y118971D01*
X44127D01*
X45985Y113798D01*
X46055Y113604D01*
X46110Y113396D01*
X46180Y113188D01*
X46221Y112993D01*
X46263Y112827D01*
X46304Y112702D01*
X46318Y112647D01*
Y112605D01*
X46332Y112591D01*
Y112577D01*
X46374D01*
X46415Y112799D01*
X46457Y113007D01*
X46512Y113215D01*
X46568Y113396D01*
X46610Y113548D01*
X46651Y113673D01*
X46679Y113756D01*
X46693Y113784D01*
X48537Y118971D01*
X51200D01*
Y110400D01*
D02*
G37*
G36*
X40060Y33400D02*
X34984D01*
Y34884D01*
X38229D01*
Y36964D01*
X35400D01*
Y38462D01*
X38229D01*
Y40473D01*
X35178D01*
Y41971D01*
X40060D01*
Y33400D01*
D02*
G37*
G36*
X34627Y9200D02*
X32797D01*
Y12515D01*
X32242D01*
X32131Y12501D01*
X32034Y12487D01*
X31853Y12418D01*
X31784Y12376D01*
X31729Y12334D01*
X31701Y12320D01*
X31687Y12306D01*
X31576Y12209D01*
X31465Y12085D01*
X31340Y11946D01*
X31230Y11793D01*
X31146Y11655D01*
X31063Y11530D01*
X31008Y11447D01*
X30994Y11433D01*
Y11419D01*
X29648Y9200D01*
X27554D01*
X29163Y11738D01*
X29302Y11932D01*
X29427Y12112D01*
X29551Y12265D01*
X29676Y12404D01*
X29787Y12528D01*
X29898Y12639D01*
X29995Y12723D01*
X30092Y12806D01*
X30259Y12917D01*
X30370Y13000D01*
X30453Y13028D01*
X30467Y13042D01*
X30481D01*
Y13069D01*
X30162Y13180D01*
X29884Y13305D01*
X29635Y13458D01*
X29440Y13596D01*
X29274Y13735D01*
X29163Y13846D01*
X29094Y13915D01*
X29066Y13943D01*
X28900Y14193D01*
X28775Y14442D01*
X28678Y14692D01*
X28622Y14928D01*
X28581Y15136D01*
X28567Y15219D01*
Y15288D01*
X28553Y15358D01*
Y15399D01*
Y15427D01*
Y15441D01*
X28567Y15649D01*
X28581Y15857D01*
X28622Y16037D01*
X28678Y16204D01*
X28830Y16523D01*
X29024Y16786D01*
X29260Y17008D01*
X29524Y17202D01*
X29801Y17355D01*
X30078Y17479D01*
X30370Y17577D01*
X30647Y17646D01*
X30910Y17701D01*
X31132Y17729D01*
X31340Y17757D01*
X31479Y17771D01*
X34627D01*
Y9200D01*
D02*
G37*
G36*
X41600Y186200D02*
X36524D01*
Y187684D01*
X39769D01*
Y189764D01*
X36940D01*
Y191262D01*
X39769D01*
Y193273D01*
X36718D01*
Y194771D01*
X41600D01*
Y186200D01*
D02*
G37*
G36*
X35110D02*
X33376D01*
Y191068D01*
Y191401D01*
X33390Y191678D01*
Y191914D01*
X33404Y192108D01*
X33418Y192247D01*
Y192358D01*
X33431Y192427D01*
Y192441D01*
X33404D01*
X33348Y192330D01*
X33279Y192219D01*
X33140Y191997D01*
X33085Y191900D01*
X33029Y191817D01*
X33002Y191761D01*
X32988Y191747D01*
X29354Y186200D01*
X27482D01*
Y194771D01*
X29216D01*
Y189889D01*
Y189584D01*
X29202Y189334D01*
Y189126D01*
X29188Y188960D01*
X29174Y188835D01*
Y188752D01*
X29160Y188710D01*
Y188696D01*
X29188D01*
X29229Y188766D01*
X29285Y188863D01*
X29354Y188974D01*
X29437Y189085D01*
X29507Y189196D01*
X29562Y189293D01*
X29604Y189348D01*
X29618Y189376D01*
X33112Y194771D01*
X35110D01*
Y186200D01*
D02*
G37*
G36*
X39162Y16356D02*
X38427D01*
Y10615D01*
X39162D01*
Y9200D01*
X35861D01*
Y10615D01*
X36610D01*
Y16356D01*
X35861D01*
Y17771D01*
X39162D01*
Y16356D01*
D02*
G37*
G36*
X47400Y9200D02*
X44446D01*
X44072Y9214D01*
X43725Y9255D01*
X43392Y9311D01*
X43073Y9380D01*
X42782Y9477D01*
X42518Y9574D01*
X42269Y9685D01*
X42033Y9796D01*
X41839Y9907D01*
X41659Y10018D01*
X41506Y10115D01*
X41381Y10212D01*
X41270Y10282D01*
X41201Y10337D01*
X41159Y10379D01*
X41145Y10393D01*
X40924Y10628D01*
X40729Y10878D01*
X40549Y11142D01*
X40410Y11405D01*
X40286Y11669D01*
X40175Y11932D01*
X40091Y12196D01*
X40022Y12445D01*
X39980Y12681D01*
X39939Y12903D01*
X39911Y13097D01*
X39883Y13263D01*
Y13402D01*
X39869Y13513D01*
Y13569D01*
Y13596D01*
X39883Y13971D01*
X39925Y14331D01*
X39980Y14664D01*
X40064Y14969D01*
X40175Y15260D01*
X40286Y15538D01*
X40424Y15788D01*
X40577Y16009D01*
X40743Y16217D01*
X40924Y16412D01*
X41118Y16592D01*
X41312Y16758D01*
X41520Y16897D01*
X41728Y17022D01*
X42144Y17244D01*
X42574Y17424D01*
X42990Y17549D01*
X43378Y17646D01*
X43725Y17701D01*
X43877Y17729D01*
X44016Y17743D01*
X44127Y17757D01*
X44238D01*
X44321Y17771D01*
X47400D01*
Y9200D01*
D02*
G37*
G36*
X37315Y168709D02*
X37565Y168696D01*
X37815Y168668D01*
X38051Y168626D01*
X38259Y168571D01*
X38453Y168515D01*
X38647Y168460D01*
X38800Y168390D01*
X38952Y168335D01*
X39077Y168266D01*
X39188Y168210D01*
X39285Y168169D01*
X39354Y168113D01*
X39410Y168085D01*
X39437Y168071D01*
X39451Y168058D01*
X39618Y167933D01*
X39756Y167780D01*
X39881Y167642D01*
X39978Y167489D01*
X40075Y167336D01*
X40145Y167184D01*
X40256Y166879D01*
X40311Y166615D01*
X40339Y166490D01*
X40353Y166393D01*
X40367Y166310D01*
Y166255D01*
Y166213D01*
Y166199D01*
X40339Y165908D01*
X40283Y165617D01*
X40186Y165367D01*
X40048Y165117D01*
X39895Y164896D01*
X39729Y164701D01*
X39548Y164507D01*
X39354Y164341D01*
X39174Y164202D01*
X38994Y164077D01*
X38827Y163966D01*
X38675Y163869D01*
X38536Y163800D01*
X38439Y163758D01*
X38383Y163731D01*
X38356Y163717D01*
X38120Y163620D01*
X37912Y163536D01*
X37732Y163439D01*
X37565Y163356D01*
X37413Y163287D01*
X37288Y163218D01*
X37177Y163148D01*
X37080Y163093D01*
X36997Y163051D01*
X36941Y162996D01*
X36844Y162926D01*
X36788Y162885D01*
X36775Y162871D01*
X36678Y162760D01*
X36594Y162635D01*
X36539Y162524D01*
X36511Y162427D01*
X36483Y162344D01*
X36470Y162274D01*
Y162233D01*
Y162219D01*
X36483Y162080D01*
X36525Y161942D01*
X36594Y161831D01*
X36664Y161734D01*
X36733Y161664D01*
X36802Y161595D01*
X36844Y161567D01*
X36858Y161553D01*
X37010Y161470D01*
X37191Y161401D01*
X37371Y161359D01*
X37565Y161318D01*
X37718Y161304D01*
X37856Y161290D01*
X37981D01*
X38231Y161304D01*
X38467Y161331D01*
X38688Y161373D01*
X38897Y161429D01*
X39299Y161567D01*
X39479Y161637D01*
X39645Y161720D01*
X39798Y161803D01*
X39937Y161872D01*
X40048Y161956D01*
X40145Y162011D01*
X40228Y162066D01*
X40283Y162108D01*
X40311Y162136D01*
X40325Y162150D01*
Y160319D01*
X39950Y160166D01*
X39548Y160056D01*
X39146Y159972D01*
X38758Y159917D01*
X38591Y159903D01*
X38425Y159889D01*
X38286Y159875D01*
X38161D01*
X38051Y159861D01*
X37912D01*
X37621Y159875D01*
X37343Y159889D01*
X37080Y159917D01*
X36844Y159958D01*
X36622Y160014D01*
X36414Y160069D01*
X36234Y160125D01*
X36067Y160180D01*
X35915Y160236D01*
X35790Y160291D01*
X35679Y160347D01*
X35596Y160402D01*
X35526Y160444D01*
X35471Y160471D01*
X35443Y160499D01*
X35429D01*
X35277Y160624D01*
X35138Y160763D01*
X35027Y160915D01*
X34930Y161068D01*
X34833Y161220D01*
X34764Y161373D01*
X34667Y161678D01*
X34597Y161942D01*
X34583Y162066D01*
X34570Y162164D01*
X34556Y162261D01*
Y162316D01*
Y162358D01*
Y162372D01*
X34570Y162677D01*
X34625Y162954D01*
X34708Y163204D01*
X34792Y163412D01*
X34889Y163592D01*
X34958Y163717D01*
X35013Y163800D01*
X35041Y163828D01*
X35138Y163939D01*
X35249Y164050D01*
X35513Y164272D01*
X35804Y164466D01*
X36095Y164632D01*
X36359Y164771D01*
X36483Y164840D01*
X36581Y164882D01*
X36664Y164923D01*
X36733Y164951D01*
X36775Y164979D01*
X36788D01*
X36983Y165062D01*
X37163Y165145D01*
X37315Y165228D01*
X37468Y165298D01*
X37593Y165367D01*
X37704Y165436D01*
X37801Y165492D01*
X37884Y165547D01*
X38009Y165631D01*
X38106Y165686D01*
X38148Y165728D01*
X38161Y165742D01*
X38259Y165853D01*
X38328Y165950D01*
X38370Y166061D01*
X38397Y166158D01*
X38425Y166227D01*
X38439Y166296D01*
Y166338D01*
Y166352D01*
X38425Y166504D01*
X38370Y166629D01*
X38314Y166740D01*
X38231Y166837D01*
X38161Y166920D01*
X38092Y166976D01*
X38051Y167004D01*
X38037Y167017D01*
X37870Y167101D01*
X37690Y167156D01*
X37510Y167212D01*
X37343Y167239D01*
X37191Y167253D01*
X37066Y167267D01*
X36733D01*
X36539Y167239D01*
X36151Y167170D01*
X35804Y167073D01*
X35499Y166976D01*
X35374Y166920D01*
X35263Y166865D01*
X35166Y166809D01*
X35083Y166768D01*
X35013Y166726D01*
X34972Y166698D01*
X34944Y166685D01*
X34930Y166671D01*
Y168390D01*
X35263Y168501D01*
X35610Y168584D01*
X35970Y168640D01*
X36303Y168682D01*
X36456Y168696D01*
X36594Y168709D01*
X36719D01*
X36830Y168723D01*
X37038D01*
X37315Y168709D01*
D02*
G37*
G36*
X33570Y33400D02*
X31739D01*
Y36382D01*
X30533D01*
X30283Y36409D01*
X30033Y36437D01*
X29811Y36493D01*
X29603Y36548D01*
X29395Y36618D01*
X29215Y36687D01*
X29049Y36756D01*
X28896Y36825D01*
X28771Y36895D01*
X28646Y36964D01*
X28563Y37020D01*
X28480Y37075D01*
X28424Y37117D01*
X28397Y37131D01*
X28383Y37144D01*
X28217Y37297D01*
X28064Y37463D01*
X27939Y37630D01*
X27814Y37810D01*
X27731Y37990D01*
X27648Y38157D01*
X27578Y38337D01*
X27537Y38490D01*
X27495Y38656D01*
X27468Y38795D01*
X27440Y38920D01*
X27426Y39031D01*
X27412Y39128D01*
Y39197D01*
Y39239D01*
Y39252D01*
X27426Y39502D01*
X27454Y39738D01*
X27495Y39946D01*
X27551Y40154D01*
X27620Y40334D01*
X27703Y40514D01*
X27911Y40820D01*
X28161Y41083D01*
X28424Y41305D01*
X28716Y41485D01*
X29007Y41638D01*
X29312Y41749D01*
X29603Y41832D01*
X29867Y41887D01*
X30116Y41929D01*
X30324Y41957D01*
X30408D01*
X30477Y41971D01*
X33570D01*
Y33400D01*
D02*
G37*
G36*
X115958Y185800D02*
X114307D01*
Y190640D01*
Y191042D01*
X114321Y191444D01*
X114335Y191805D01*
Y192138D01*
X114349Y192290D01*
Y192415D01*
X114363Y192540D01*
Y192637D01*
X114377Y192707D01*
Y192776D01*
Y192804D01*
Y192817D01*
X114335D01*
X114294Y192651D01*
X114266Y192498D01*
X114238Y192360D01*
X114210Y192235D01*
X114183Y192124D01*
X114155Y192027D01*
X114127Y191874D01*
X114099Y191763D01*
X114072Y191694D01*
X114058Y191666D01*
Y191653D01*
X111908Y185800D01*
X110452D01*
X108344Y191708D01*
X108302Y191833D01*
X108261Y191999D01*
X108219Y192180D01*
X108178Y192374D01*
X108136Y192540D01*
X108108Y192679D01*
X108094Y192734D01*
X108081Y192776D01*
Y192804D01*
Y192817D01*
X108025D01*
X108053Y192429D01*
X108067Y192069D01*
X108094Y191763D01*
Y191500D01*
X108108Y191292D01*
Y191209D01*
Y191126D01*
Y191070D01*
Y191028D01*
Y191014D01*
Y191001D01*
Y185800D01*
X106292D01*
Y194371D01*
X108885D01*
X110743Y189198D01*
X110813Y189004D01*
X110868Y188796D01*
X110937Y188588D01*
X110979Y188393D01*
X111021Y188227D01*
X111062Y188102D01*
X111076Y188047D01*
Y188005D01*
X111090Y187991D01*
Y187977D01*
X111132D01*
X111173Y188199D01*
X111215Y188407D01*
X111270Y188615D01*
X111326Y188796D01*
X111367Y188948D01*
X111409Y189073D01*
X111437Y189156D01*
X111451Y189184D01*
X113295Y194371D01*
X115958D01*
Y185800D01*
D02*
G37*
G36*
X51600Y160000D02*
X49950D01*
Y164840D01*
Y165242D01*
X49963Y165644D01*
X49977Y166005D01*
Y166338D01*
X49991Y166490D01*
Y166615D01*
X50005Y166740D01*
Y166837D01*
X50019Y166907D01*
Y166976D01*
Y167004D01*
Y167017D01*
X49977D01*
X49936Y166851D01*
X49908Y166698D01*
X49880Y166560D01*
X49853Y166435D01*
X49825Y166324D01*
X49797Y166227D01*
X49769Y166074D01*
X49742Y165963D01*
X49714Y165894D01*
X49700Y165866D01*
Y165853D01*
X47550Y160000D01*
X46094D01*
X43986Y165908D01*
X43945Y166033D01*
X43903Y166199D01*
X43861Y166380D01*
X43820Y166574D01*
X43778Y166740D01*
X43751Y166879D01*
X43737Y166934D01*
X43723Y166976D01*
Y167004D01*
Y167017D01*
X43667D01*
X43695Y166629D01*
X43709Y166269D01*
X43737Y165963D01*
Y165700D01*
X43751Y165492D01*
Y165409D01*
Y165326D01*
Y165270D01*
Y165228D01*
Y165215D01*
Y165201D01*
Y160000D01*
X41934D01*
Y168571D01*
X44527D01*
X46385Y163398D01*
X46455Y163204D01*
X46510Y162996D01*
X46580Y162788D01*
X46621Y162593D01*
X46663Y162427D01*
X46705Y162302D01*
X46718Y162247D01*
Y162205D01*
X46732Y162191D01*
Y162177D01*
X46774D01*
X46815Y162399D01*
X46857Y162607D01*
X46912Y162815D01*
X46968Y162996D01*
X47010Y163148D01*
X47051Y163273D01*
X47079Y163356D01*
X47093Y163384D01*
X48937Y168571D01*
X51600D01*
Y160000D01*
D02*
G37*
G36*
X51363Y42109D02*
X51612Y42095D01*
X51862Y42068D01*
X52098Y42026D01*
X52306Y41971D01*
X52500Y41915D01*
X52694Y41860D01*
X52847Y41790D01*
X52999Y41735D01*
X53124Y41666D01*
X53235Y41610D01*
X53332Y41568D01*
X53401Y41513D01*
X53457Y41485D01*
X53485Y41471D01*
X53499Y41458D01*
X53665Y41333D01*
X53804Y41180D01*
X53928Y41041D01*
X54026Y40889D01*
X54123Y40736D01*
X54192Y40584D01*
X54303Y40279D01*
X54358Y40015D01*
X54386Y39890D01*
X54400Y39793D01*
X54414Y39710D01*
Y39655D01*
Y39613D01*
Y39599D01*
X54386Y39308D01*
X54331Y39017D01*
X54234Y38767D01*
X54095Y38517D01*
X53942Y38296D01*
X53776Y38101D01*
X53596Y37907D01*
X53401Y37741D01*
X53221Y37602D01*
X53041Y37477D01*
X52874Y37366D01*
X52722Y37269D01*
X52583Y37200D01*
X52486Y37158D01*
X52431Y37131D01*
X52403Y37117D01*
X52167Y37020D01*
X51959Y36936D01*
X51779Y36839D01*
X51612Y36756D01*
X51460Y36687D01*
X51335Y36618D01*
X51224Y36548D01*
X51127Y36493D01*
X51044Y36451D01*
X50988Y36396D01*
X50891Y36326D01*
X50836Y36285D01*
X50822Y36271D01*
X50725Y36160D01*
X50642Y36035D01*
X50586Y35924D01*
X50558Y35827D01*
X50531Y35744D01*
X50517Y35674D01*
Y35633D01*
Y35619D01*
X50531Y35480D01*
X50572Y35342D01*
X50642Y35231D01*
X50711Y35134D01*
X50780Y35064D01*
X50850Y34995D01*
X50891Y34967D01*
X50905Y34953D01*
X51058Y34870D01*
X51238Y34801D01*
X51418Y34759D01*
X51612Y34718D01*
X51765Y34704D01*
X51904Y34690D01*
X52028D01*
X52278Y34704D01*
X52514Y34731D01*
X52736Y34773D01*
X52944Y34828D01*
X53346Y34967D01*
X53526Y35036D01*
X53693Y35120D01*
X53845Y35203D01*
X53984Y35272D01*
X54095Y35355D01*
X54192Y35411D01*
X54275Y35466D01*
X54331Y35508D01*
X54358Y35536D01*
X54372Y35550D01*
Y33719D01*
X53998Y33566D01*
X53596Y33456D01*
X53193Y33372D01*
X52805Y33317D01*
X52639Y33303D01*
X52472Y33289D01*
X52334Y33275D01*
X52209D01*
X52098Y33261D01*
X51959D01*
X51668Y33275D01*
X51391Y33289D01*
X51127Y33317D01*
X50891Y33358D01*
X50669Y33414D01*
X50461Y33469D01*
X50281Y33525D01*
X50115Y33580D01*
X49962Y33636D01*
X49837Y33691D01*
X49726Y33747D01*
X49643Y33802D01*
X49574Y33844D01*
X49518Y33872D01*
X49491Y33899D01*
X49477D01*
X49324Y34024D01*
X49186Y34163D01*
X49075Y34315D01*
X48977Y34468D01*
X48880Y34620D01*
X48811Y34773D01*
X48714Y35078D01*
X48645Y35342D01*
X48631Y35466D01*
X48617Y35563D01*
X48603Y35661D01*
Y35716D01*
Y35758D01*
Y35772D01*
X48617Y36077D01*
X48672Y36354D01*
X48756Y36604D01*
X48839Y36812D01*
X48936Y36992D01*
X49005Y37117D01*
X49061Y37200D01*
X49088Y37228D01*
X49186Y37339D01*
X49296Y37450D01*
X49560Y37671D01*
X49851Y37866D01*
X50142Y38032D01*
X50406Y38171D01*
X50531Y38240D01*
X50628Y38282D01*
X50711Y38323D01*
X50780Y38351D01*
X50822Y38379D01*
X50836D01*
X51030Y38462D01*
X51210Y38545D01*
X51363Y38628D01*
X51515Y38698D01*
X51640Y38767D01*
X51751Y38836D01*
X51848Y38892D01*
X51931Y38947D01*
X52056Y39031D01*
X52153Y39086D01*
X52195Y39128D01*
X52209Y39141D01*
X52306Y39252D01*
X52375Y39350D01*
X52417Y39460D01*
X52445Y39558D01*
X52472Y39627D01*
X52486Y39696D01*
Y39738D01*
Y39752D01*
X52472Y39904D01*
X52417Y40029D01*
X52361Y40140D01*
X52278Y40237D01*
X52209Y40320D01*
X52139Y40376D01*
X52098Y40403D01*
X52084Y40417D01*
X51918Y40501D01*
X51737Y40556D01*
X51557Y40612D01*
X51391Y40639D01*
X51238Y40653D01*
X51113Y40667D01*
X50780D01*
X50586Y40639D01*
X50198Y40570D01*
X49851Y40473D01*
X49546Y40376D01*
X49421Y40320D01*
X49310Y40265D01*
X49213Y40209D01*
X49130Y40168D01*
X49061Y40126D01*
X49019Y40098D01*
X48991Y40085D01*
X48977Y40071D01*
Y41790D01*
X49310Y41901D01*
X49657Y41985D01*
X50018Y42040D01*
X50350Y42082D01*
X50503Y42095D01*
X50642Y42109D01*
X50767D01*
X50877Y42123D01*
X51085D01*
X51363Y42109D01*
D02*
G37*
%LPC*%
G36*
X30617Y167350D02*
X30562D01*
X30451Y167336D01*
X30340Y167323D01*
X30243Y167281D01*
X30159Y167212D01*
X29993Y167073D01*
X29854Y166865D01*
X29743Y166643D01*
X29632Y166380D01*
X29563Y166102D01*
X29494Y165811D01*
X29438Y165520D01*
X29411Y165242D01*
X29383Y164993D01*
X29355Y164757D01*
Y164563D01*
X29341Y164410D01*
Y164355D01*
Y164313D01*
Y164285D01*
Y164272D01*
Y163994D01*
X29355Y163731D01*
X29369Y163495D01*
X29397Y163259D01*
X29424Y163051D01*
X29452Y162857D01*
X29494Y162677D01*
X29535Y162510D01*
X29632Y162219D01*
X29729Y161969D01*
X29854Y161761D01*
X29965Y161609D01*
X30076Y161470D01*
X30187Y161387D01*
X30298Y161318D01*
X30395Y161262D01*
X30478Y161234D01*
X30534Y161220D01*
X30589D01*
X30700Y161234D01*
X30811Y161248D01*
X30908Y161290D01*
X31005Y161345D01*
X31186Y161498D01*
X31324Y161678D01*
X31449Y161914D01*
X31560Y162164D01*
X31643Y162427D01*
X31699Y162704D01*
X31754Y162982D01*
X31796Y163245D01*
X31824Y163495D01*
X31851Y163731D01*
Y163911D01*
X31865Y164063D01*
Y164119D01*
Y164160D01*
Y164174D01*
Y164188D01*
Y164480D01*
X31851Y164743D01*
X31837Y164993D01*
X31810Y165228D01*
X31782Y165450D01*
X31740Y165658D01*
X31699Y165839D01*
X31657Y166019D01*
X31616Y166171D01*
X31560Y166324D01*
X31449Y166574D01*
X31338Y166782D01*
X31214Y166962D01*
X31089Y167087D01*
X30978Y167184D01*
X30867Y167253D01*
X30770Y167295D01*
X30687Y167336D01*
X30617Y167350D01*
D02*
G37*
G36*
X82942Y55283D02*
X79123D01*
X78324Y54151D01*
Y52353D01*
X82942D01*
Y55283D01*
D02*
G37*
G36*
X75638Y55350D02*
X71176D01*
Y52353D01*
X76415D01*
Y54196D01*
X75638Y55350D01*
D02*
G37*
G36*
X32797Y16384D02*
X31867D01*
X31618Y16370D01*
X31410Y16328D01*
X31230Y16273D01*
X31063Y16204D01*
X30924Y16120D01*
X30813Y16009D01*
X30730Y15912D01*
X30647Y15801D01*
X30591Y15690D01*
X30550Y15593D01*
X30508Y15399D01*
X30494Y15330D01*
X30481Y15274D01*
Y15233D01*
Y15219D01*
X30494Y15025D01*
X30536Y14844D01*
X30605Y14678D01*
X30675Y14553D01*
X30744Y14442D01*
X30813Y14359D01*
X30855Y14304D01*
X30869Y14290D01*
X31021Y14165D01*
X31188Y14068D01*
X31368Y14012D01*
X31521Y13957D01*
X31673Y13929D01*
X31784Y13915D01*
X32797D01*
Y16384D01*
D02*
G37*
G36*
X115447Y117612D02*
X114670D01*
X114421Y117598D01*
X114199Y117570D01*
X114004Y117514D01*
X113838Y117459D01*
X113699Y117390D01*
X113575Y117306D01*
X113477Y117209D01*
X113408Y117126D01*
X113353Y117029D01*
X113297Y116932D01*
X113256Y116779D01*
X113242Y116724D01*
X113228Y116669D01*
Y116641D01*
Y116627D01*
X113242Y116433D01*
X113283Y116266D01*
X113339Y116128D01*
X113408Y116003D01*
X113477Y115906D01*
X113533Y115836D01*
X113575Y115795D01*
X113588Y115781D01*
X113727Y115684D01*
X113894Y115615D01*
X114060Y115559D01*
X114213Y115531D01*
X114351Y115504D01*
X114476Y115490D01*
X115447D01*
Y117612D01*
D02*
G37*
G36*
Y114117D02*
X114379D01*
X114129Y114103D01*
X113907Y114075D01*
X113727Y114020D01*
X113561Y113964D01*
X113450Y113909D01*
X113353Y113853D01*
X113297Y113826D01*
X113283Y113812D01*
X113159Y113687D01*
X113062Y113548D01*
X112992Y113410D01*
X112937Y113271D01*
X112909Y113160D01*
X112895Y113049D01*
Y112993D01*
Y112966D01*
X112909Y112772D01*
X112950Y112591D01*
X113020Y112439D01*
X113089Y112314D01*
X113159Y112203D01*
X113228Y112134D01*
X113270Y112092D01*
X113283Y112078D01*
X113436Y111967D01*
X113616Y111898D01*
X113797Y111842D01*
X113963Y111801D01*
X114129Y111773D01*
X114254Y111759D01*
X115447D01*
Y114117D01*
D02*
G37*
G36*
X115766Y139517D02*
X114698D01*
X114448Y139503D01*
X114226Y139475D01*
X114046Y139420D01*
X113880Y139364D01*
X113769Y139309D01*
X113672Y139253D01*
X113616Y139226D01*
X113602Y139212D01*
X113477Y139087D01*
X113380Y138948D01*
X113311Y138809D01*
X113256Y138671D01*
X113228Y138560D01*
X113214Y138449D01*
Y138393D01*
Y138366D01*
X113228Y138172D01*
X113270Y137991D01*
X113339Y137839D01*
X113408Y137714D01*
X113477Y137603D01*
X113547Y137534D01*
X113588Y137492D01*
X113602Y137478D01*
X113755Y137367D01*
X113935Y137298D01*
X114115Y137242D01*
X114282Y137201D01*
X114448Y137173D01*
X114573Y137159D01*
X115766D01*
Y139517D01*
D02*
G37*
G36*
X104336Y167873D02*
X103351D01*
X103116Y167859D01*
X102908Y167845D01*
X102506Y167762D01*
X102159Y167651D01*
X102006Y167582D01*
X101868Y167512D01*
X101743Y167443D01*
X101632Y167374D01*
X101549Y167318D01*
X101465Y167263D01*
X101410Y167221D01*
X101368Y167180D01*
X101341Y167166D01*
X101327Y167152D01*
X101188Y167013D01*
X101063Y166861D01*
X100966Y166708D01*
X100883Y166542D01*
X100744Y166209D01*
X100647Y165890D01*
X100592Y165612D01*
X100578Y165487D01*
X100564Y165377D01*
X100550Y165293D01*
Y165224D01*
Y165182D01*
Y165169D01*
X100564Y164933D01*
X100578Y164697D01*
X100619Y164475D01*
X100661Y164281D01*
X100716Y164087D01*
X100786Y163920D01*
X100855Y163754D01*
X100925Y163615D01*
X100994Y163491D01*
X101063Y163379D01*
X101119Y163283D01*
X101188Y163199D01*
X101230Y163144D01*
X101271Y163102D01*
X101285Y163074D01*
X101299Y163061D01*
X101438Y162922D01*
X101604Y162811D01*
X101757Y162700D01*
X101923Y162617D01*
X102270Y162478D01*
X102589Y162381D01*
X102741Y162353D01*
X102880Y162325D01*
X103019Y162312D01*
X103116Y162298D01*
X103213Y162284D01*
X104336D01*
Y167873D01*
D02*
G37*
G36*
X45569Y16273D02*
X44585D01*
X44349Y16259D01*
X44141Y16245D01*
X43739Y16162D01*
X43392Y16051D01*
X43239Y15982D01*
X43101Y15912D01*
X42976Y15843D01*
X42865Y15774D01*
X42782Y15718D01*
X42699Y15663D01*
X42643Y15621D01*
X42601Y15580D01*
X42574Y15566D01*
X42560Y15552D01*
X42421Y15413D01*
X42296Y15260D01*
X42199Y15108D01*
X42116Y14942D01*
X41978Y14609D01*
X41880Y14290D01*
X41825Y14012D01*
X41811Y13887D01*
X41797Y13777D01*
X41783Y13693D01*
Y13624D01*
Y13582D01*
Y13569D01*
X41797Y13333D01*
X41811Y13097D01*
X41853Y12875D01*
X41894Y12681D01*
X41950Y12487D01*
X42019Y12320D01*
X42088Y12154D01*
X42158Y12015D01*
X42227Y11890D01*
X42296Y11780D01*
X42352Y11682D01*
X42421Y11599D01*
X42463Y11544D01*
X42505Y11502D01*
X42518Y11474D01*
X42532Y11461D01*
X42671Y11322D01*
X42837Y11211D01*
X42990Y11100D01*
X43156Y11017D01*
X43503Y10878D01*
X43822Y10781D01*
X43974Y10753D01*
X44113Y10726D01*
X44252Y10712D01*
X44349Y10698D01*
X44446Y10684D01*
X45569D01*
Y16273D01*
D02*
G37*
G36*
X115766Y143012D02*
X114989D01*
X114740Y142998D01*
X114518Y142970D01*
X114324Y142914D01*
X114157Y142859D01*
X114018Y142790D01*
X113894Y142706D01*
X113797Y142609D01*
X113727Y142526D01*
X113672Y142429D01*
X113616Y142332D01*
X113575Y142179D01*
X113561Y142124D01*
X113547Y142069D01*
Y142041D01*
Y142027D01*
X113561Y141833D01*
X113602Y141666D01*
X113658Y141528D01*
X113727Y141403D01*
X113797Y141306D01*
X113852Y141236D01*
X113894Y141195D01*
X113907Y141181D01*
X114046Y141084D01*
X114213Y141014D01*
X114379Y140959D01*
X114531Y140931D01*
X114670Y140904D01*
X114795Y140890D01*
X115766D01*
Y143012D01*
D02*
G37*
G36*
X105154Y40873D02*
X104170D01*
X103934Y40859D01*
X103726Y40845D01*
X103324Y40762D01*
X102977Y40651D01*
X102824Y40582D01*
X102686Y40512D01*
X102561Y40443D01*
X102450Y40374D01*
X102367Y40318D01*
X102284Y40263D01*
X102228Y40221D01*
X102186Y40180D01*
X102159Y40166D01*
X102145Y40152D01*
X102006Y40013D01*
X101881Y39860D01*
X101784Y39708D01*
X101701Y39541D01*
X101562Y39209D01*
X101465Y38890D01*
X101410Y38612D01*
X101396Y38488D01*
X101382Y38377D01*
X101368Y38293D01*
Y38224D01*
Y38182D01*
Y38169D01*
X101382Y37933D01*
X101396Y37697D01*
X101438Y37475D01*
X101479Y37281D01*
X101535Y37087D01*
X101604Y36920D01*
X101673Y36754D01*
X101743Y36615D01*
X101812Y36490D01*
X101881Y36379D01*
X101937Y36282D01*
X102006Y36199D01*
X102048Y36144D01*
X102089Y36102D01*
X102103Y36074D01*
X102117Y36061D01*
X102256Y35922D01*
X102422Y35811D01*
X102575Y35700D01*
X102741Y35617D01*
X103088Y35478D01*
X103407Y35381D01*
X103560Y35353D01*
X103698Y35326D01*
X103837Y35312D01*
X103934Y35298D01*
X104031Y35284D01*
X105154D01*
Y40873D01*
D02*
G37*
G36*
X46369Y65384D02*
X45440D01*
X45191Y65370D01*
X44983Y65328D01*
X44802Y65273D01*
X44636Y65204D01*
X44497Y65120D01*
X44386Y65009D01*
X44303Y64912D01*
X44220Y64801D01*
X44164Y64690D01*
X44123Y64593D01*
X44081Y64399D01*
X44067Y64330D01*
X44053Y64274D01*
Y64233D01*
Y64219D01*
X44067Y64025D01*
X44109Y63844D01*
X44178Y63678D01*
X44247Y63553D01*
X44317Y63442D01*
X44386Y63359D01*
X44428Y63304D01*
X44442Y63290D01*
X44594Y63165D01*
X44761Y63068D01*
X44941Y63012D01*
X45093Y62957D01*
X45246Y62929D01*
X45357Y62915D01*
X46369D01*
Y65384D01*
D02*
G37*
G36*
X104336Y15673D02*
X103351D01*
X103116Y15659D01*
X102908Y15645D01*
X102506Y15562D01*
X102159Y15451D01*
X102006Y15382D01*
X101868Y15312D01*
X101743Y15243D01*
X101632Y15174D01*
X101549Y15118D01*
X101465Y15063D01*
X101410Y15021D01*
X101368Y14979D01*
X101341Y14966D01*
X101327Y14952D01*
X101188Y14813D01*
X101063Y14661D01*
X100966Y14508D01*
X100883Y14341D01*
X100744Y14009D01*
X100647Y13690D01*
X100592Y13412D01*
X100578Y13288D01*
X100564Y13177D01*
X100550Y13093D01*
Y13024D01*
Y12982D01*
Y12969D01*
X100564Y12733D01*
X100578Y12497D01*
X100619Y12275D01*
X100661Y12081D01*
X100716Y11887D01*
X100786Y11720D01*
X100855Y11554D01*
X100925Y11415D01*
X100994Y11291D01*
X101063Y11179D01*
X101119Y11083D01*
X101188Y10999D01*
X101230Y10944D01*
X101271Y10902D01*
X101285Y10874D01*
X101299Y10861D01*
X101438Y10722D01*
X101604Y10611D01*
X101757Y10500D01*
X101923Y10417D01*
X102270Y10278D01*
X102589Y10181D01*
X102741Y10153D01*
X102880Y10125D01*
X103019Y10112D01*
X103116Y10098D01*
X103213Y10084D01*
X104336D01*
Y15673D01*
D02*
G37*
G36*
X114127Y40873D02*
X113142D01*
X112907Y40859D01*
X112699Y40845D01*
X112296Y40762D01*
X111950Y40651D01*
X111797Y40582D01*
X111659Y40512D01*
X111534Y40443D01*
X111423Y40374D01*
X111340Y40318D01*
X111256Y40263D01*
X111201Y40221D01*
X111159Y40180D01*
X111132Y40166D01*
X111118Y40152D01*
X110979Y40013D01*
X110854Y39860D01*
X110757Y39708D01*
X110674Y39541D01*
X110535Y39209D01*
X110438Y38890D01*
X110383Y38612D01*
X110369Y38488D01*
X110355Y38377D01*
X110341Y38293D01*
Y38224D01*
Y38182D01*
Y38169D01*
X110355Y37933D01*
X110369Y37697D01*
X110410Y37475D01*
X110452Y37281D01*
X110507Y37087D01*
X110577Y36920D01*
X110646Y36754D01*
X110716Y36615D01*
X110785Y36490D01*
X110854Y36379D01*
X110910Y36282D01*
X110979Y36199D01*
X111021Y36144D01*
X111062Y36102D01*
X111076Y36074D01*
X111090Y36061D01*
X111229Y35922D01*
X111395Y35811D01*
X111548Y35700D01*
X111714Y35617D01*
X112061Y35478D01*
X112380Y35381D01*
X112532Y35353D01*
X112671Y35326D01*
X112810Y35312D01*
X112907Y35298D01*
X113004Y35284D01*
X114127D01*
Y40873D01*
D02*
G37*
G36*
X114260Y91301D02*
X114205D01*
X114191Y91134D01*
X114177Y90982D01*
X114149Y90857D01*
X114135Y90746D01*
X114108Y90663D01*
X114094Y90607D01*
X114080Y90566D01*
Y90552D01*
X113095Y87570D01*
X115383D01*
X114413Y90566D01*
X114329Y90829D01*
X114316Y90954D01*
X114288Y91065D01*
X114274Y91162D01*
X114260Y91231D01*
Y91287D01*
Y91301D01*
D02*
G37*
G36*
X31739Y40556D02*
X30935D01*
X30657Y40542D01*
X30408Y40501D01*
X30200Y40431D01*
X30006Y40348D01*
X29853Y40237D01*
X29728Y40126D01*
X29617Y40001D01*
X29534Y39876D01*
X29478Y39738D01*
X29423Y39613D01*
X29381Y39502D01*
X29367Y39405D01*
X29354Y39308D01*
X29340Y39239D01*
Y39197D01*
Y39183D01*
X29354Y38933D01*
X29409Y38725D01*
X29492Y38531D01*
X29589Y38379D01*
X29714Y38240D01*
X29853Y38129D01*
X29992Y38032D01*
X30144Y37963D01*
X30297Y37893D01*
X30435Y37852D01*
X30574Y37824D01*
X30699Y37810D01*
X30796Y37796D01*
X30879Y37782D01*
X31739D01*
Y40556D01*
D02*
G37*
G36*
X114379Y66101D02*
X114324D01*
X114310Y65934D01*
X114296Y65782D01*
X114268Y65657D01*
X114254Y65546D01*
X114226Y65463D01*
X114213Y65407D01*
X114199Y65366D01*
Y65352D01*
X113214Y62370D01*
X115502D01*
X114531Y65366D01*
X114448Y65629D01*
X114434Y65754D01*
X114407Y65865D01*
X114393Y65962D01*
X114379Y66031D01*
Y66087D01*
Y66101D01*
D02*
G37*
%LPD*%
D30*
X126800Y181410D02*
Y199190D01*
Y181410D02*
X130610Y177600D01*
X148390Y203000D02*
X152200Y199190D01*
Y181410D02*
Y199190D01*
X148390Y177600D02*
X152200Y181410D01*
X130610Y203000D02*
X148390D01*
X126800Y199190D02*
X130610Y203000D01*
Y177600D02*
X148390D01*
X130610Y203000D02*
X148390D01*
X126800Y156010D02*
Y173790D01*
Y156010D02*
X130610Y152200D01*
X148390Y177600D02*
X152200Y173790D01*
Y156010D02*
Y173790D01*
X148390Y152200D02*
X152200Y156010D01*
X130610Y177600D02*
X148390D01*
X126800Y173790D02*
X130610Y177600D01*
Y152200D02*
X148390D01*
X130610Y177600D02*
X148390D01*
X126800Y130610D02*
Y148390D01*
Y130610D02*
X130610Y126800D01*
X148390Y152200D02*
X152200Y148390D01*
Y130610D02*
Y148390D01*
X148390Y126800D02*
X152200Y130610D01*
X130610Y152200D02*
X148390D01*
X126800Y148390D02*
X130610Y152200D01*
Y126800D02*
X148390D01*
X130610Y152200D02*
X148390D01*
X126800Y105210D02*
Y122990D01*
Y105210D02*
X130610Y101400D01*
X148390Y126800D02*
X152200Y122990D01*
Y105210D02*
Y122990D01*
X148390Y101400D02*
X152200Y105210D01*
X130610Y126800D02*
X148390D01*
X126800Y122990D02*
X130610Y126800D01*
Y101400D02*
X148390D01*
X130610Y126800D02*
X148390D01*
X126800Y79810D02*
Y97590D01*
Y79810D02*
X130610Y76000D01*
X148390Y101400D02*
X152200Y97590D01*
Y79810D02*
Y97590D01*
X148390Y76000D02*
X152200Y79810D01*
X130610Y101400D02*
X148390D01*
X126800Y97590D02*
X130610Y101400D01*
Y76000D02*
X148390D01*
X130610Y101400D02*
X148390D01*
X126800Y54410D02*
Y72190D01*
Y54410D02*
X130610Y50600D01*
X148390Y76000D02*
X152200Y72190D01*
Y54410D02*
Y72190D01*
X148390Y50600D02*
X152200Y54410D01*
X130610Y76000D02*
X148390D01*
X126800Y72190D02*
X130610Y76000D01*
Y50600D02*
X148390D01*
X130610Y76000D02*
X148390D01*
X126800Y29010D02*
Y46790D01*
Y29010D02*
X130610Y25200D01*
X148390Y50600D02*
X152200Y46790D01*
Y29010D02*
Y46790D01*
X148390Y25200D02*
X152200Y29010D01*
X130610Y50600D02*
X148390D01*
X126800Y46790D02*
X130610Y50600D01*
Y25200D02*
X148390D01*
X130610Y50600D02*
X148390D01*
X126800Y3610D02*
Y21390D01*
Y3610D02*
X130610Y-200D01*
X148390Y25200D02*
X152200Y21390D01*
Y3610D02*
Y21390D01*
X148390Y-200D02*
X152200Y3610D01*
X130610Y25200D02*
X148390D01*
X126800Y21390D02*
X130610Y25200D01*
Y-200D02*
X148390D01*
X130610Y25200D02*
X148390D01*
X25700Y3610D02*
Y21390D01*
X21890Y25200D02*
X25700Y21390D01*
X300Y3610D02*
X4110Y-200D01*
X300Y3610D02*
Y21390D01*
X4110Y25200D01*
Y-200D02*
X21890D01*
X25700Y3610D01*
X4110Y25200D02*
X21890D01*
X4110Y-200D02*
X21890D01*
X25700Y29010D02*
Y46790D01*
X21890Y50600D02*
X25700Y46790D01*
X300Y29010D02*
X4110Y25200D01*
X300Y29010D02*
Y46790D01*
X4110Y50600D01*
Y25200D02*
X21890D01*
X25700Y29010D01*
X4110Y50600D02*
X21890D01*
X4110Y25200D02*
X21890D01*
X25700Y54410D02*
Y72190D01*
X21890Y76000D02*
X25700Y72190D01*
X300Y54410D02*
X4110Y50600D01*
X300Y54410D02*
Y72190D01*
X4110Y76000D01*
Y50600D02*
X21890D01*
X25700Y54410D01*
X4110Y76000D02*
X21890D01*
X4110Y50600D02*
X21890D01*
X25700Y79810D02*
Y97590D01*
X21890Y101400D02*
X25700Y97590D01*
X300Y79810D02*
X4110Y76000D01*
X300Y79810D02*
Y97590D01*
X4110Y101400D01*
Y76000D02*
X21890D01*
X25700Y79810D01*
X4110Y101400D02*
X21890D01*
X4110Y76000D02*
X21890D01*
X25700Y105210D02*
Y122990D01*
X21890Y126800D02*
X25700Y122990D01*
X300Y105210D02*
X4110Y101400D01*
X300Y105210D02*
Y122990D01*
X4110Y126800D01*
Y101400D02*
X21890D01*
X25700Y105210D01*
X4110Y126800D02*
X21890D01*
X4110Y101400D02*
X21890D01*
X25700Y130610D02*
Y148390D01*
X21890Y152200D02*
X25700Y148390D01*
X300Y130610D02*
X4110Y126800D01*
X300Y130610D02*
Y148390D01*
X4110Y152200D01*
Y126800D02*
X21890D01*
X25700Y130610D01*
X4110Y152200D02*
X21890D01*
X4110Y126800D02*
X21890D01*
X25700Y156010D02*
Y173790D01*
X21890Y177600D02*
X25700Y173790D01*
X300Y156010D02*
X4110Y152200D01*
X300Y156010D02*
Y173790D01*
X4110Y177600D01*
Y152200D02*
X21890D01*
X25700Y156010D01*
X4110Y177600D02*
X21890D01*
X4110Y152200D02*
X21890D01*
X25700Y181410D02*
Y199190D01*
X21890Y203000D02*
X25700Y199190D01*
X300Y181410D02*
X4110Y177600D01*
X300Y181410D02*
Y199190D01*
X4110Y203000D01*
Y177600D02*
X21890D01*
X25700Y181410D01*
X4110Y203000D02*
X21890D01*
X4110Y177600D02*
X21890D01*
M02*
