M48
;Layer_Color=9474304
;FILE_FORMAT=4:4
METRIC,TZ
;TYPE=PLATED
T1F00S00C0.3000
T2F00S00C0.5000
T3F00S00C1.0000
%
T01
X67800Y8100
X68000Y16100
X87800Y15500
Y8500
X99800Y14900
X111800Y15500
X112400Y26300
X124000Y24400
X124400Y11000
X115000Y47300
X78400Y56500
X70800Y57400
X79800Y65700
X73200Y76600
X66200Y76400
X49600Y80200
X52200Y86200
X42800Y114500
Y125100
X53600Y127000
X50200Y132800
X58600Y131800
X34400Y138700
X28479Y128864
X33600Y169100
X42000Y168700
X48600Y167700
X64800Y177100
X72200Y176900
X72800Y184700
X64400Y184900
X72800Y154300
X84400Y163100
X100800Y161400
X100400Y172200
X102600Y183700
X101000Y149600
X26200Y66100
X64800Y192500
X72600Y193100
T02
X67500Y96500
X77000
X86500
X86500Y106000
X77000
X67500
Y115500
X77000
X86500
X104800Y106100
X111600
X118600Y105900
X125500Y105800
T03
X13000Y12500
Y37900
Y63300
Y88700
Y114100
Y139500
Y164900
X139500
Y139500
Y114100
Y88700
Y63300
Y37900
Y12500
Y190300
X13000
M30
