%FSLAX44Y44*%
%MOMM*%
G71*
G01*
G75*
%ADD10C,0.2800*%
%ADD11C,1.0000*%
%ADD12C,0.5000*%
%ADD13C,0.3000*%
%ADD14R,0.3000X0.7500*%
%ADD15R,0.7500X0.3000*%
%ADD16R,0.9000X0.8000*%
%ADD17R,0.8000X0.9000*%
%ADD18R,1.4700X1.1600*%
%ADD19R,1.5500X1.1600*%
G04:AMPARAMS|DCode=20|XSize=1.4001mm|YSize=1.1999mm|CornerRadius=0.12mm|HoleSize=0mm|Usage=FLASHONLY|Rotation=0.000|XOffset=0mm|YOffset=0mm|HoleType=Round|Shape=RoundedRectangle|*
%AMROUNDEDRECTD20*
21,1,1.4001,0.9599,0,0,0.0*
21,1,1.1601,1.1999,0,0,0.0*
1,1,0.2400,0.5800,-0.4800*
1,1,0.2400,-0.5800,-0.4800*
1,1,0.2400,-0.5800,0.4800*
1,1,0.2400,0.5800,0.4800*
%
%ADD20ROUNDEDRECTD20*%
G04:AMPARAMS|DCode=21|XSize=0.7mm|YSize=1.1999mm|CornerRadius=0.07mm|HoleSize=0mm|Usage=FLASHONLY|Rotation=0.000|XOffset=0mm|YOffset=0mm|HoleType=Round|Shape=RoundedRectangle|*
%AMROUNDEDRECTD21*
21,1,0.7000,1.0599,0,0,0.0*
21,1,0.5600,1.1999,0,0,0.0*
1,1,0.1400,0.2800,-0.5300*
1,1,0.1400,-0.2800,-0.5300*
1,1,0.1400,-0.2800,0.5300*
1,1,0.1400,0.2800,0.5300*
%
%ADD21ROUNDEDRECTD21*%
%ADD22R,2.5000X2.5000*%
%ADD23R,1.6000X1.6000*%
%ADD24C,1.6000*%
%ADD25C,0.6000*%
%ADD26C,0.5000*%
%ADD27C,0.6000*%
%ADD28C,2.0160*%
%ADD29C,1.3160*%
%ADD30C,0.2000*%
%ADD31C,0.1270*%
G36*
X112233Y105320D02*
X112433Y105276D01*
X112677Y105209D01*
X112966Y105121D01*
X113277Y104987D01*
X113610Y104810D01*
X121135Y100481D01*
Y105320D01*
X123200D01*
Y97684D01*
X121757D01*
X112389Y103012D01*
X109481D01*
Y100148D01*
X112411D01*
Y97839D01*
X108704D01*
X108548Y97861D01*
X108349Y97906D01*
X108126Y97994D01*
X107882Y98150D01*
X107683Y98372D01*
X107616Y98505D01*
X107549Y98683D01*
X107505Y98860D01*
X107483Y99082D01*
Y104077D01*
Y104099D01*
Y104122D01*
X107505Y104277D01*
X107549Y104477D01*
X107638Y104699D01*
X107794Y104943D01*
X108015Y105143D01*
X108171Y105209D01*
X108326Y105276D01*
X108526Y105320D01*
X108748Y105343D01*
X112078D01*
X112233Y105320D01*
D02*
G37*
G36*
X122157Y114711D02*
X122356Y114666D01*
X122578Y114578D01*
X122800Y114422D01*
X123000Y114200D01*
X123089Y114045D01*
X123156Y113889D01*
X123178Y113690D01*
X123200Y113468D01*
Y108273D01*
Y108251D01*
Y108229D01*
X123178Y108073D01*
X123133Y107873D01*
X123045Y107651D01*
X122889Y107429D01*
X122667Y107229D01*
X122534Y107141D01*
X122356Y107074D01*
X122179Y107052D01*
X121957Y107030D01*
X108704D01*
X108548Y107052D01*
X108349Y107096D01*
X108126Y107185D01*
X107882Y107340D01*
X107794Y107451D01*
X107683Y107563D01*
X107616Y107718D01*
X107549Y107873D01*
X107505Y108073D01*
X107483Y108295D01*
Y113468D01*
Y113490D01*
Y113512D01*
X107505Y113667D01*
X107549Y113867D01*
X107638Y114089D01*
X107794Y114333D01*
X108015Y114533D01*
X108171Y114600D01*
X108326Y114666D01*
X108526Y114711D01*
X108748Y114733D01*
X122001D01*
X122157Y114711D01*
D02*
G37*
G36*
Y95997D02*
X122356Y95952D01*
X122578Y95863D01*
X122800Y95708D01*
X123000Y95486D01*
X123089Y95330D01*
X123156Y95175D01*
X123178Y94975D01*
X123200Y94753D01*
Y89514D01*
Y89492D01*
Y89470D01*
X123178Y89314D01*
X123133Y89115D01*
X123045Y88893D01*
X122889Y88671D01*
X122667Y88471D01*
X122534Y88382D01*
X122356Y88315D01*
X122179Y88293D01*
X121957Y88271D01*
X117073D01*
X116917Y88293D01*
X116718Y88338D01*
X116496Y88404D01*
X116274Y88515D01*
X116074Y88649D01*
X115874Y88848D01*
X115852Y88870D01*
X115808Y88959D01*
X115719Y89093D01*
X115630Y89270D01*
X115497Y89492D01*
X115364Y89714D01*
X115075Y90225D01*
X115053Y90202D01*
X115008Y90114D01*
X114920Y89980D01*
X114831Y89803D01*
X114720Y89603D01*
X114587Y89381D01*
X114298Y88893D01*
X114276Y88870D01*
X114209Y88804D01*
X114098Y88693D01*
X113943Y88604D01*
X113765Y88493D01*
X113543Y88382D01*
X113277Y88315D01*
X112988Y88293D01*
X108704D01*
X108548Y88315D01*
X108349Y88360D01*
X108126Y88449D01*
X107882Y88604D01*
X107794Y88715D01*
X107683Y88826D01*
X107616Y88982D01*
X107549Y89137D01*
X107505Y89337D01*
X107483Y89559D01*
Y94731D01*
Y94753D01*
Y94776D01*
X107505Y94931D01*
X107549Y95108D01*
X107638Y95353D01*
X107794Y95575D01*
X108015Y95774D01*
X108171Y95841D01*
X108326Y95908D01*
X108526Y95952D01*
X108748Y95974D01*
X113121D01*
X113277Y95952D01*
X113454Y95908D01*
X113676Y95819D01*
X113876Y95730D01*
X114098Y95575D01*
X114298Y95375D01*
X114320Y95353D01*
X114365Y95264D01*
X114431Y95131D01*
X114542Y94953D01*
X114653Y94753D01*
X114786Y94531D01*
X115075Y94043D01*
X115097Y94065D01*
X115142Y94154D01*
X115230Y94287D01*
X115319Y94465D01*
X115452Y94687D01*
X115585Y94909D01*
X115874Y95419D01*
X115896Y95442D01*
X115963Y95508D01*
X116074Y95619D01*
X116207Y95730D01*
X116407Y95819D01*
X116651Y95930D01*
X116917Y95997D01*
X117228Y96019D01*
X122001D01*
X122157Y95997D01*
D02*
G37*
G36*
Y78348D02*
X122356Y78303D01*
X122578Y78215D01*
X122800Y78059D01*
X122911Y77970D01*
X123000Y77837D01*
X123089Y77682D01*
X123156Y77526D01*
X123178Y77327D01*
X123200Y77105D01*
Y72043D01*
Y72021D01*
Y71999D01*
X123178Y71843D01*
X123133Y71644D01*
X123045Y71422D01*
X122889Y71200D01*
X122667Y71000D01*
X122534Y70911D01*
X122356Y70844D01*
X122179Y70822D01*
X121957Y70800D01*
X118027D01*
Y73153D01*
X121224D01*
Y76017D01*
X118139D01*
X113699Y71311D01*
X113676Y71288D01*
X113610Y71222D01*
X113499Y71155D01*
X113366Y71066D01*
X113166Y70955D01*
X112966Y70889D01*
X112700Y70822D01*
X112433Y70800D01*
X108704D01*
X108548Y70822D01*
X108349Y70867D01*
X108126Y70955D01*
X107882Y71111D01*
X107683Y71333D01*
X107616Y71466D01*
X107549Y71644D01*
X107505Y71821D01*
X107483Y72043D01*
Y77105D01*
Y77127D01*
Y77149D01*
Y77216D01*
X107505Y77305D01*
X107549Y77504D01*
X107638Y77748D01*
X107794Y77970D01*
X108015Y78170D01*
X108149Y78259D01*
X108326Y78326D01*
X108504Y78348D01*
X108726Y78370D01*
X112433D01*
Y76017D01*
X109459D01*
Y73153D01*
X112322D01*
X116762Y77837D01*
X116784Y77860D01*
X116851Y77926D01*
X116962Y78015D01*
X117095Y78104D01*
X117295Y78193D01*
X117495Y78281D01*
X117739Y78348D01*
X118027Y78370D01*
X122001D01*
X122157Y78348D01*
D02*
G37*
G36*
X109570Y84475D02*
X123200D01*
Y82144D01*
X109570D01*
Y79547D01*
X107483D01*
Y87072D01*
X109570D01*
Y84475D01*
D02*
G37*
G36*
X123200Y134668D02*
X120758D01*
Y136933D01*
X123200D01*
Y134668D01*
D02*
G37*
G36*
X122157Y146345D02*
X122356Y146301D01*
X122578Y146212D01*
X122800Y146057D01*
X123000Y145835D01*
X123089Y145679D01*
X123156Y145524D01*
X123178Y145324D01*
X123200Y145102D01*
Y139907D01*
Y139885D01*
Y139863D01*
X123178Y139707D01*
X123133Y139508D01*
X123045Y139286D01*
X122889Y139064D01*
X122667Y138864D01*
X122534Y138775D01*
X122356Y138709D01*
X122179Y138686D01*
X121957Y138664D01*
X108704D01*
X108548Y138686D01*
X108349Y138731D01*
X108126Y138820D01*
X107882Y138975D01*
X107794Y139086D01*
X107683Y139197D01*
X107616Y139352D01*
X107549Y139508D01*
X107505Y139707D01*
X107483Y139930D01*
Y145102D01*
Y145124D01*
Y145146D01*
X107505Y145302D01*
X107549Y145502D01*
X107638Y145724D01*
X107794Y145968D01*
X108015Y146168D01*
X108171Y146234D01*
X108326Y146301D01*
X108526Y146345D01*
X108748Y146367D01*
X122001D01*
X122157Y146345D01*
D02*
G37*
G36*
X123200Y130561D02*
X112100D01*
Y129651D01*
X111789D01*
X107483Y130872D01*
Y132870D01*
X123200D01*
Y130561D01*
D02*
G37*
G36*
X123222Y125677D02*
Y123346D01*
X107483Y120350D01*
Y122703D01*
X118272Y124456D01*
X118605D01*
X118805Y124479D01*
X119315D01*
X119626Y124501D01*
X119271D01*
X119093Y124523D01*
X118849D01*
X118582Y124545D01*
X118272Y124567D01*
X107483Y126343D01*
Y128696D01*
X123222Y125677D01*
D02*
G37*
%LPC*%
G36*
X121180Y112424D02*
X109503D01*
Y109339D01*
X121180D01*
Y112424D01*
D02*
G37*
G36*
Y144059D02*
X109503D01*
Y140973D01*
X121180D01*
Y144059D01*
D02*
G37*
G36*
X113232Y93666D02*
X109459D01*
Y90624D01*
X113232D01*
X114143Y92134D01*
X113232Y93666D01*
D02*
G37*
G36*
X121224Y93688D02*
X116873D01*
X116007Y92134D01*
X116873Y90602D01*
X121224D01*
Y93688D01*
D02*
G37*
%LPD*%
D13*
X54931Y81877D02*
G03*
X54931Y81877I-1459J0D01*
G01*
D30*
X59780Y143945D02*
G03*
X62374Y141351I2594J0D01*
G01*
X68667D02*
G03*
X71260Y143945I0J2594D01*
G01*
X62333Y168649D02*
G03*
X59740Y166056I0J-2594D01*
G01*
X71220D02*
G03*
X68626Y168649I-2594J0D01*
G01*
X101556Y186280D02*
G03*
X104149Y188874I0J2594D01*
G01*
Y195166D02*
G03*
X101556Y197760I-2594J0D01*
G01*
X76851Y188834D02*
G03*
X79444Y186240I2594J0D01*
G01*
Y197720D02*
G03*
X76851Y195126I0J-2594D01*
G01*
X127390Y195454D02*
G03*
X123890Y198954I-3500J0D01*
G01*
X113110D02*
G03*
X109610Y195454I0J-3500D01*
G01*
X123890Y166046D02*
G03*
X127390Y169546I0J3500D01*
G01*
X109610D02*
G03*
X113110Y166046I3500J0D01*
G01*
X74056Y61280D02*
G03*
X76649Y63874I0J2594D01*
G01*
Y70167D02*
G03*
X74056Y72760I-2594J0D01*
G01*
X49351Y63833D02*
G03*
X51944Y61240I2594J0D01*
G01*
Y72720D02*
G03*
X49351Y70126I0J-2594D01*
G01*
X29945Y183720D02*
G03*
X27351Y181126I0J-2594D01*
G01*
Y174834D02*
G03*
X29945Y172240I2594J0D01*
G01*
X54649Y181166D02*
G03*
X52056Y183760I-2594J0D01*
G01*
Y172280D02*
G03*
X54649Y174874I0J2594D01*
G01*
X58507Y83581D02*
X61392D01*
X54671Y87701D02*
Y90555D01*
Y87701D02*
X58507Y83581D01*
X94000Y127993D02*
X99245D01*
Y122500D02*
Y127993D01*
X93500Y83759D02*
X99146D01*
X55017Y122500D02*
Y127945D01*
X60500D01*
X99146Y83759D02*
Y89500D01*
X62374Y141351D02*
X68867D01*
X71300Y144100D02*
Y151264D01*
X59780Y143945D02*
Y150600D01*
X71220Y159400D02*
Y166056D01*
X59700Y158735D02*
Y165900D01*
X62133Y168649D02*
X68626D01*
X104149Y188874D02*
Y195366D01*
X94235Y197800D02*
X101400D01*
X94900Y186280D02*
X101556D01*
X79444Y197720D02*
X86100D01*
X79600Y186200D02*
X86764D01*
X76851Y188633D02*
Y195126D01*
X127390Y186254D02*
Y195454D01*
X109610Y186254D02*
Y195454D01*
X113110Y198954D02*
X123890D01*
X113110Y166046D02*
X123890D01*
X127390Y169546D02*
Y178746D01*
X109610Y169546D02*
Y178746D01*
X75291Y138692D02*
Y183291D01*
X93791D01*
X75291Y138692D02*
X93791D01*
Y183291D01*
X88709Y19708D02*
Y64309D01*
X107209D01*
X88709Y19708D02*
X107209D01*
Y64309D01*
X76649Y63874D02*
Y70367D01*
X66736Y72800D02*
X73900D01*
X67400Y61280D02*
X74056D01*
X51944Y72720D02*
X58600D01*
X52100Y61200D02*
X59264D01*
X49351Y63633D02*
Y70126D01*
X29132Y36178D02*
X40790D01*
Y62904D01*
X29132Y36178D02*
Y62904D01*
X40790D01*
X29210Y94322D02*
X40868D01*
X29210Y67596D02*
Y94322D01*
X40868Y67596D02*
Y94322D01*
X29210Y67596D02*
X40868D01*
X27678Y141210D02*
Y152867D01*
Y141210D02*
X54404D01*
X27678Y152867D02*
X54404D01*
Y141210D02*
Y152867D01*
Y153710D02*
Y165368D01*
X27678D02*
X54404D01*
X27678Y153710D02*
X54404D01*
X27678D02*
Y165368D01*
X27351Y174634D02*
Y181126D01*
X30100Y172200D02*
X37264D01*
X29945Y183720D02*
X36600D01*
X45400Y172280D02*
X52056D01*
X44735Y183800D02*
X51900D01*
X54649Y174874D02*
Y181367D01*
X27596Y185632D02*
Y197290D01*
Y185632D02*
X54322D01*
X27596Y197290D02*
X54322D01*
Y185632D02*
Y197290D01*
X28710Y4596D02*
X40367D01*
Y31322D01*
X28710Y4596D02*
Y31322D01*
X40367D01*
D31*
X74001Y29500D02*
G03*
X74001Y29500I-8001J0D01*
G01*
X57999D02*
X74001D01*
X66000Y21499D02*
Y37501D01*
X49500Y9579D02*
Y49421D01*
X82500D01*
Y9579D02*
Y49421D01*
X49500Y9579D02*
X82500D01*
M02*
