%FSLAX44Y44*%
%MOMM*%
G71*
G01*
G75*
G04 Layer_Color=8421504*
%ADD10C,0.2800*%
%ADD11C,1.0000*%
%ADD12C,0.5000*%
%ADD13C,0.3000*%
%ADD14R,0.3000X0.7500*%
%ADD15R,0.7500X0.3000*%
%ADD16R,0.9000X0.8000*%
%ADD17R,0.8000X0.9000*%
%ADD18R,1.4700X1.1600*%
%ADD19R,1.5500X1.1600*%
G04:AMPARAMS|DCode=20|XSize=1.4001mm|YSize=1.1999mm|CornerRadius=0.12mm|HoleSize=0mm|Usage=FLASHONLY|Rotation=0.000|XOffset=0mm|YOffset=0mm|HoleType=Round|Shape=RoundedRectangle|*
%AMROUNDEDRECTD20*
21,1,1.4001,0.9599,0,0,0.0*
21,1,1.1601,1.1999,0,0,0.0*
1,1,0.2400,0.5800,-0.4800*
1,1,0.2400,-0.5800,-0.4800*
1,1,0.2400,-0.5800,0.4800*
1,1,0.2400,0.5800,0.4800*
%
%ADD20ROUNDEDRECTD20*%
G04:AMPARAMS|DCode=21|XSize=0.7mm|YSize=1.1999mm|CornerRadius=0.07mm|HoleSize=0mm|Usage=FLASHONLY|Rotation=0.000|XOffset=0mm|YOffset=0mm|HoleType=Round|Shape=RoundedRectangle|*
%AMROUNDEDRECTD21*
21,1,0.7000,1.0599,0,0,0.0*
21,1,0.5600,1.1999,0,0,0.0*
1,1,0.1400,0.2800,-0.5300*
1,1,0.1400,-0.2800,-0.5300*
1,1,0.1400,-0.2800,0.5300*
1,1,0.1400,0.2800,0.5300*
%
%ADD21ROUNDEDRECTD21*%
%ADD22R,2.5000X2.5000*%
%ADD23R,1.6000X1.6000*%
%ADD24C,1.6000*%
%ADD25C,0.6000*%
%ADD26C,0.5000*%
%ADD27C,0.6000*%
%ADD28C,2.0160*%
%ADD29C,1.3160*%
%ADD30C,0.2000*%
%ADD31C,0.1270*%
%ADD32R,0.7700X0.7700*%
%ADD33R,0.7700X0.7700*%
%ADD34R,0.7800X0.7700*%
%ADD35R,0.7700X0.7700*%
D14*
X64500Y86500D02*
D03*
X69500D02*
D03*
X74500D02*
D03*
X79500D02*
D03*
X84500D02*
D03*
X89500D02*
D03*
Y125500D02*
D03*
X84500D02*
D03*
X79500D02*
D03*
X74500D02*
D03*
X69500D02*
D03*
X64500D02*
D03*
D15*
X96500Y93500D02*
D03*
Y98500D02*
D03*
Y103500D02*
D03*
Y108500D02*
D03*
Y113500D02*
D03*
Y118500D02*
D03*
X57500D02*
D03*
Y113500D02*
D03*
Y108500D02*
D03*
Y103500D02*
D03*
Y98500D02*
D03*
Y93500D02*
D03*
D16*
X65500Y147000D02*
D03*
Y163000D02*
D03*
X35064Y41500D02*
D03*
X34936Y57500D02*
D03*
Y89000D02*
D03*
X35064Y73000D02*
D03*
X34564Y10000D02*
D03*
X34437Y26000D02*
D03*
D17*
X98500Y192000D02*
D03*
X82500D02*
D03*
X71000Y67000D02*
D03*
X55000D02*
D03*
X33000Y146937D02*
D03*
X49000Y147064D02*
D03*
Y159564D02*
D03*
X33000Y159437D02*
D03*
Y178000D02*
D03*
X49000D02*
D03*
X33000Y191437D02*
D03*
X49000Y191563D02*
D03*
D18*
X118500Y173600D02*
D03*
Y191400D02*
D03*
D19*
X84500Y146009D02*
D03*
Y175991D02*
D03*
X98000Y27009D02*
D03*
Y56992D02*
D03*
D20*
X66000Y46500D02*
D03*
D21*
X77999Y12500D02*
D03*
X54001D02*
D03*
D32*
X82650Y111650D02*
D03*
D33*
X82651Y100350D02*
D03*
D34*
X71400Y111650D02*
D03*
D35*
X71350Y100350D02*
D03*
M02*
